<svg xmlns="http://www.w3.org/2000/svg" viewBox="0 0 679.33 866.85"><defs><style>.cls-1{fill:#8a3425;}.cls-2{fill:#fff;}.cls-3{fill:#d49b8b;}.cls-4{fill:#fbc0aa;}</style></defs><g id="Layer_2" data-name="Layer 2"><g id="icon"><path class="cls-1" d="M679.23,170.18l-.25-3.67-.37-6.81c-.41-9.18-.69-18.95-1.62-29.25-.47-5.14-1.12-10.38-2-15.62s-1.81-9.93-3.06-15c-2.38-10-5.25-20.29-10.26-30.86a88.43,88.43,0,0,0-9.52-15.42,84.25,84.25,0,0,0-13-12.85c-9.34-7.23-18.89-12.08-27.92-16.36A262.66,262.66,0,0,0,553.94,4.9c-4.92-1-9.85-2-14.8-2.81A129.74,129.74,0,0,0,523.31.47C513.09,0,503.42.33,494.2.34L487.4.26,479.93,0a79.64,79.64,0,0,0-16.6,1.91,164.44,164.44,0,0,0-29.08,9c-9.36,3.9-18.49,8.2-27.32,15.32l-3.26,3.06c-1.06,1.28-2.13,2.61-3.08,3.9a76.7,76.7,0,0,0-3.83,6.94,131.82,131.82,0,0,0-5.7,14L388.69,61a63.93,63.93,0,0,0-2,7.48A59.22,59.22,0,0,0,385.48,84a49.12,49.12,0,0,0,3.24,15c.43,1.19.95,2.34,1.47,3.48a15.8,15.8,0,0,0,1.33,2.5c.14.22.32.45.48.67a50.07,50.07,0,0,0-4.08-3.08c-1.38-.93-2.83-1.78-4.31-2.58l0-1a15,15,0,0,0-12.32-15.19l-.7-.13c-11.49-2.08-21.15-2.33-29.83-3.79l-3.7-.57c-1.37-.22-2.75-.42-4.15-.57-2.78-.35-5.59-.59-8.41-.75a123.68,123.68,0,0,0-17.1.17,115.58,115.58,0,0,0-33.72,7.87c-5.65,2.31-9.94,4.4-14.73,6.75s-9.5,4.83-14.32,7.75c-9.55,5.7-19.52,13.29-27.36,23.27-7.92,9.76-13.29,21.73-16.3,32.34l-3.95,14.1c-3.06.79-6.18,1.64-9.38,2.62a116.87,116.87,0,0,0-16.08,6.19A141.43,141.43,0,0,0,142.66,197a146.69,146.69,0,0,0-23.47,24.27,164.32,164.32,0,0,0-17.21,28,176,176,0,0,0-11.66,30.45,168.65,168.65,0,0,0-5.9,31.79c-.53,5.34-.72,10.68-.81,16l0,7-.78.49-6.07,3.83c-4,2.52-7.23,4.2-12.3,6.9-9.23,5.07-17.7,10.62-26,15.87l-1,.61c-2.83,1.81-9.48,8.47-10.47,8.91l-.75.33-11.41,5a30.68,30.68,0,0,0-7.38,4.76,22.41,22.41,0,0,0-6,8.52A24,24,0,0,0,0,399.83a32,32,0,0,0,.55,4.42c.11.72.28,1.37.44,2a23.44,23.44,0,0,0,.68,2.38,45.08,45.08,0,0,0,3.65,7.4c1.24,2.08,2.37,3.86,3.71,5.83a60,60,0,0,0,9.8,11.36c3.83,3.41,7.5,5.93,10.76,8.37,1.69,1.22,3,2.31,5.41,3.93,1,.65,1.92,1.25,2.86,1.81a26.22,26.22,0,0,0-4.69,4A29.48,29.48,0,0,0,27.32,461a35.72,35.72,0,0,0-1.45,19.74,39.65,39.65,0,0,0,1.18,4.57,38.19,38.19,0,0,0,1.79,4.54l1.27,2.56-.26.34a38.09,38.09,0,0,0-5,8.74,30.75,30.75,0,0,0-2.22,11.65,32.09,32.09,0,0,0,2.2,11.25,42.27,42.27,0,0,0,4.5,8.55,45.26,45.26,0,0,0-3,4.05,55.9,55.9,0,0,0-8.13,19.43A58.62,58.62,0,0,0,24,597.3c3.93,6.9,8.88,11.78,13.8,16A103.74,103.74,0,0,0,53,623.68a194.08,194.08,0,0,0,30.68,13.7c20.51,7.33,41.11,12.27,61.76,16.41q15.5,3.06,31.06,5.41c5.19.79,10.41,1.5,15.66,2.17l8,.92,4.25.39,1.23.09c.33,0,2.28.08,3,0l1.8-.08c9.7-.4,19.67-.54,28.78,0,2.25.14,4.43.33,6.43.54l2.7.38.89.19,1.15.89c1.86,1.48,3.84,2.89,5.61,4.42,14.75,12,26.8,24.89,35,40.37s13.36,33.92,17.26,53a196.19,196.19,0,0,1,3.5,27.79c.24,4.68.29,9.38.18,14.08-.07,4.1-.39,7.56-.58,12.45a52.87,52.87,0,0,0-2.55,6.89l-.88,3-.64,3.44c-.19,1.17-.41,2.24-.51,3.49s-.07,2.72-.05,4.08c-.13,2.52.69,6,1.49,8.94a32.19,32.19,0,0,0,2.15,4.7,17.49,17.49,0,0,0,2.94,4.26,30.93,30.93,0,0,0,3.59,3.64c1.24.93,2.54,1.82,3.86,2.64a20.72,20.72,0,0,0,3.79,1.87c1.22.49,2.54,1.05,3.72,1.39,9.42,2.55,16.85,1.84,23.88,1a137.65,137.65,0,0,0,19.58-4.45l.08,0a16.39,16.39,0,0,0,8.34-.45l.4-.13a266.09,266.09,0,0,0,85.21-46.33c12.68-10.34,24.68-22,34.85-35.87s18.51-30.18,21.91-48.81c3.22-18.6.45-39.13-8.14-55.62l-10.11-20.12c-1.77-3.2-2.88-6.49-4.37-9.72s-2.9-6.48-4.21-9.71c-4.84-12.8-8.52-26.3-8.23-36.68.18-5.09,1.2-8.84,2.81-10.51.57-.31.84-.9,1.41-1.29s1.08-.89,1.93-1.11a12.8,12.8,0,0,1,2.43-.9l1.32-.26c.22,0,.35,0,.53-.07l.25,0a1.59,1.59,0,0,1-.29,0l9.35-2.42q22.77-14.8,45.35-29.9l.93-.63a11.14,11.14,0,0,0,2.07-1.83c9.87-11.33,21.22-22.94,31.21-36.15a274.36,274.36,0,0,0,25.9-41.57,226,226,0,0,0,9.87-22.34c2.84-7.49,5.37-14.74,8.25-21.59l2.31-5.25c.89-2,1.69-4,2.43-6A83.3,83.3,0,0,0,639,404a96,96,0,0,0,1.89-18.66,14.92,14.92,0,0,0,8.7-14.25l0-.82c-.76-16.71-4.79-32.67-10.07-47.56-2.64-7.44-5.59-14.65-8.67-21.65l-8.57-19.43-7.47-20.43a17.21,17.21,0,0,0-3.39-8.52c.37-.83.73-1.7,1.06-2.63l11.22-5.64,6.85-3.49,3.33-1.71.83-.42.9-.52,1.09-.7c.69-.47,1.26-.91,1.79-1.34s.9-.79,1.26-1.14a129.71,129.71,0,0,0,18.65-14.54,77,77,0,0,0,9.69-11,48.23,48.23,0,0,0,7.22-14.7,57.47,57.47,0,0,0,4-19.34C679.36,173.7,679.34,171.93,679.23,170.18Zm-68.65,80.73h0c0-.19,0-.3,0-.19A.66.66,0,0,0,610.58,250.91ZM175.26,369.3a15.23,15.23,0,0,0-.33-1.66l-.24-1.14-.05-.24q1.22,3.64,2.55,7.24l-15.44-.1q6.9-.56,13.66-1A21.08,21.08,0,0,0,175.26,369.3ZM610.6,251.05a.31.31,0,0,0,0-.08h0A.19.19,0,0,1,610.6,251.05ZM85.65,333.25v0l-.38.24-.28.18C85.36,333.33,85.67,333.19,85.65,333.25ZM31,495.61a6.14,6.14,0,0,1-.1-.76c0,.1,0,.22,0,.34Zm216.64,167,.67.52A6.67,6.67,0,0,1,247.67,662.62Zm2.18,1.32v0S249.89,663.94,249.85,663.94ZM612.59,249.58a.14.14,0,0,1,0-.06C612.72,249.39,612.73,249.43,612.59,249.58Z"/><path class="cls-2" d="M381.19,100.4s-3.91-7.33-18.56-8.79-38.11,131.9-38.11,131.9S246.85,204.45,197,241.58s-37.62,76.7-73.28,101.61-81.58,21-81.58,21L21,377.14S120.32,390.09,137.91,458s47.39,134.83,106,149,67.41,4.88,76.21,44S347,818.51,347.48,821s12.75,21.11,21,20.08,17.56-5.43,36.13-15.69S410,589.4,410,556.67s96.73-42,131.41-59.6,47.88-17.58,54.72-52.27S600.53,393.51,604,393s33.22-8.79,33.22-21-13.19-45.92-19-56.18S513.58,272.36,518.46,202s-49.83-99.17-49.83-99.17-47.87,26.38-64,20.52S381.19,100.4,381.19,100.4Z"/><path class="cls-3" d="M397,105.14c-1.65-1.12-2.24-1.46-2.76-1.88a48.87,48.87,0,0,0-17.84-9.12v79.51c15.32-6.87,58.68-23.85,84.38-8.48,12.3,7.36,18.75,20.9,19.18,40.24.44,19.81-5.61,34.22-18,42.84-25.6,17.82-70.36,4.92-85.58-.28V364.83h123l-2.5,5.36c-.25.54-25.21,54.93-6.79,83.83,7.65,12,22.14,18.1,43.07,18.1,20.57,0,34.56-5.88,41.58-17.47,17.39-28.7-11-83.76-11.26-84.31l-2.88-5.51H635c-.15-2.07-.33-4.15-.59-6.23-2.73-22-11-42.4-20.49-62.3-2.34-4.92-4.6-9.87-6.86-14.82-2.12-5.91-6.48-17.86-9.15-23.8,0-.26,0-.51.07-.77h-.42c-.3-.63-.57-1.19-.81-1.62-2.77-5-3.76-10.12-2.91-12.89a20.35,20.35,0,0,0,3-6.74,19.43,19.43,0,0,1,5.68-7l4.2-2.17c2.62-1.21,6.92-3.38,12-6.24,2.65-1.41,5.31-2.8,7.95-4.24a7.71,7.71,0,0,0,2-1.84c13.07-8.56,26.94-20.21,29.51-31.94a38.32,38.32,0,0,0,3-18.06c-1.43-19.56-.65-36.09-4.05-55.39-7.76-44-18.09-58.1-46.54-73.26A266.54,266.54,0,0,0,536.3,9.27C519.6,6,499,7.21,482.07,5.33,464.76,3.4,417.63,16.85,407.53,31c-5.32,7.45-9,16.25-12.51,24.8-5.35,12.95-6.57,26.31-1.41,39.77C394.67,98.32,395.58,101.15,397,105.14Z"/><path class="cls-4" d="M572.79,372.36c7.11,15.45,24.64,59.32,8.36,86.19-8.48,14-24.64,21.11-48,21.11-23.68,0-40.31-7.27-49.44-21.6-17.18-27-2.14-70.5,4-85.7H376.37V501.21l-5.69-3.38c-.61-.36-61.53-36.16-92-18.82-11.53,6.55-17.37,20.41-17.37,41.18,0,21.7,6.23,36.52,18.53,44,30.22,18.5,87.88-10.56,88.46-10.86l5.44-2.78L376,838.74c64.06-21.08,159.21-92.87,120.85-165.51-60.76-115.06,2.43-112,2.43-112l46.16-28.59c9.41-10,19.33-19.66,28.23-30.13a261,261,0,0,0,36.56-55.8c5.34-11.07,9.57-22.7,15.27-33.57a86.28,86.28,0,0,0,9.7-40.76Z"/><path class="cls-4" d="M174.69,364.83c-5.55-15.43-19.61-60.91-3.17-86.94,7.13-11.29,19-17.46,35.18-18.35,24.55-1.37,42,5.15,51.69,19.28,18.38,26.68,3.31,72.19-2.71,87.73H368.84V237.06l5.15,2c.56.22,56.48,21.91,83.65,3,10.17-7.09,15.13-19.36,14.76-36.49-.37-16.57-5.59-28-15.52-33.92-27.35-16.39-82,11-82.57,11.31l-5.47,2.78V92.49c-9.62-1.58-19.86-1.6-31.27-3.28-21.34-3.13-41.86-.7-61.16,8.57-28.51,13.71-47.08,25.81-56.2,55.49-2.3,7.47-4.25,15.06-6.17,22.64-.68,2.7-1.81,3.7-4.76,4.41-8.64,2.07-17.38,4.27-25.56,7.67-24.43,10.14-43.56,26.88-57.94,49-18.16,27.93-26.74,58.79-27.1,91.95-.06,4.68-1.75,7.67-5.42,9.79-5.91,3.41-11.78,7-18,9.79-10.54,4.8-20.48,10.63-30.5,16.31Z"/><path class="cls-3" d="M366.29,562.67c-15.83,7.15-62.08,25.31-90.38,8-14.69-9-22.14-26-22.14-50.48,0-23.68,7.13-39.75,21.19-47.74,28.69-16.32,77.25,6.82,93.88,15.72V374.09H244.25l2.37-5.31c.25-.56,25.11-57.31,5.55-85.69-8.14-11.82-23.31-17.22-45.06-16-13.83.76-23.39,5.61-29.22,14.85-17.52,27.75,5.52,84.67,5.75,85.24l2.14,5.2H30.9c-3.24,1.67-6.52,3.3-9.87,4.78-9.7,4.31-12.83,10.88-9.73,21,.91,2.95,4.24,7.8,6,10.34,7.16,10.15,12.53,12.7,22.61,19.75,7.23,5.06,11.8,5,16.68,12.35-2.29.5-4.72,8.23-6.31,8.64-9.66,2.47-13,13.65-10.36,23.25,1.9,7,4.37,7.26,5.54,14.44a7.71,7.71,0,0,1-1.75,5.48c-6.86,8.07-7.87,15.62-2.26,24.49,2.38,3.75,5.69,6.93,8.93,10.8A105.73,105.73,0,0,0,42.75,535C32.48,547,30,567.14,38.63,582.4c23.59,41.93,165.85,55.41,169.62,55.2,4.31-.24,43.87-2.33,51.39,3.31,41.57,31.2,56.48,58.43,66.36,110a202.36,202.36,0,0,1,2.61,58c-.16,1.59-.17,3.19-.25,5-15.42,30,6.79,36.35,40.15,27.12Z"/><path class="cls-2" d="M368.51,841c-1.36-46.39-2.21-92.78-3.29-139.17l-2.45-139.18,5,3.19a196.43,196.43,0,0,1-36.68,12.77c-12.66,2.92-26,4.5-39.45,2.21a53.1,53.1,0,0,1-19.24-7.41,44.76,44.76,0,0,1-14.3-15.18c-7-12.16-8.75-26-8.72-39s2.05-27.12,10.31-38.93A39.19,39.19,0,0,1,276,466.87a51,51,0,0,1,20.19-4.62,85.34,85.34,0,0,1,20,1.49,143.86,143.86,0,0,1,19.1,4.81,228.1,228.1,0,0,1,35.82,15.31L364,488.17l-.12-57,.17-57,4.83,4.83-124.59-.36-7,0,3-6.27a176.14,176.14,0,0,0,11.09-31.34c2.65-10.72,4.41-21.7,4.05-32.45-.57-10.58-3.47-21.18-10.78-28s-18.28-9.36-29-9.79c-10.93-.42-22.08.66-29.77,7.3a26,26,0,0,0-4.93,5.66c-1.07,2.35-2.66,4.4-3.3,7l-1.24,3.74-.76,3.94c-.66,2.6-.61,5.37-.93,8.06-.51,10.92,1.12,22.06,3.49,33a194.5,194.5,0,0,0,10.09,32l1.5,3.58-3.86-.05-77.44-1.09-77.43-1.26.09,0-10,4.6,9.78-5,0,0h.06l77.43-1.26,77.44-1.08-2.36,3.52a198.38,198.38,0,0,1-10.92-32.68c-2.63-11.2-4.57-22.71-4.24-34.51.29-2.95.2-5.91.87-8.87l.78-4.43,1.36-4.36c.7-3,2.52-5.63,3.82-8.43a32.59,32.59,0,0,1,6.09-7.24,36.8,36.8,0,0,1,16.72-8.16,77.27,77.27,0,0,1,17.81-1.44,70.34,70.34,0,0,1,17.8,2.51A42.12,42.12,0,0,1,250,274.49a38.47,38.47,0,0,1,10.36,15.7c2.39,5.81,3,11.93,3.53,17.9.47,12-1.39,23.66-4.11,35a185.31,185.31,0,0,1-11.4,32.85l-4.09-6.28,124.59-.37h4.81l0,4.85.16,57-.11,57,0,8.14-7.17-3.84a217.8,217.8,0,0,0-34.16-14.84c-11.71-3.72-23.91-6.63-35.75-6.07a41.79,41.79,0,0,0-16.74,3.68,30.06,30.06,0,0,0-12.82,10.36c-6.61,9.19-8.68,21.58-8.83,33.7s1.56,24.57,7.33,34.62a36,36,0,0,0,11.53,12.39,46.55,46.55,0,0,0,16.07,6.31c11.66,2.22,24.15,1.09,36.22-1.5a188.52,188.52,0,0,0,35.46-11.67l5-2.16v5.35l-.22,139.2C369.25,748.24,369.14,794.64,368.51,841Z"/><path class="cls-2" d="M376.87,94.14c.7,13.25,1.07,26.5,1.56,39.75s.67,26.51,1,39.76l-4.35-2.82a191.6,191.6,0,0,1,32.31-12c11.21-2.79,22.89-4.83,34.95-3.66a65.35,65.35,0,0,1,9,1.53c2.93,1,5.95,1.75,8.72,3.31a38,38,0,0,1,14.56,11.95c7.65,10.36,9.66,23.06,9.74,34.74s-2.25,24.41-9.78,34.55a40.88,40.88,0,0,1-14,12,52.55,52.55,0,0,1-17,5.76c-11.69,2.09-23.38,1.14-34.68-.64a207.13,207.13,0,0,1-33.11-8.74l2.26-1.61q-.36,29.22,0,58.43c0,19.47.44,39,.85,58.43l-2.56-2.56L437.86,361l61.48-.81,7.45-.09-3.22,6.74a167.58,167.58,0,0,0-11.45,32.47c-2.72,11.08-4.28,22.5-3.24,33.34.07,2.76.89,5.28,1.28,7.92.34,1.27.81,2.47,1.2,3.71a13.7,13.7,0,0,0,1.47,3.54,27,27,0,0,0,9.45,11.35c8.33,5.75,19.58,7.61,30.72,7.75s22.54-1.56,30.73-7.48c8.39-5.65,11.85-16.37,12.1-27.35.41-11.06-2-22.47-5.22-33.5a189.82,189.82,0,0,0-12.77-32.3l-2.39-4.62,5.11.13,37.19,1,37.2,1.32-.77.82-.32-6.22,1-.13.85,6.24.11.79-.87,0-37.2,1.32-37.19,1,2.71-4.48A178.17,178.17,0,0,1,578,396.22c3.7,11.46,6.71,23.38,6.67,36a55,55,0,0,1-3.09,19c-1.44,3-2.65,6.17-4.76,8.91a34.38,34.38,0,0,1-7.18,7.27,46.82,46.82,0,0,1-17.94,8,87.34,87.34,0,0,1-18.71,2c-12.23,0-25.52-1.62-36.86-9.43a37.81,37.81,0,0,1-12.93-15.5,21.26,21.26,0,0,1-1.91-4.62c-.5-1.57-1.08-3.13-1.49-4.71-.54-3.18-1.37-6.38-1.43-9.54-1-12.73,1-25,4.11-36.73a177.24,177.24,0,0,1,12.62-34l4.24,6.65-61.48-.81-61.49-1.3-2.61-.06.05-2.5c.41-19.48.81-39,.86-58.43q.31-29.22,0-58.43l0-2.35,2.28.74a174.5,174.5,0,0,0,32.67,7.33c11,1.19,22.26,1.49,32.78-.95A45.51,45.51,0,0,0,457.06,247a33.3,33.3,0,0,0,11.07-10.39c5.68-8.47,7.57-19.2,7.35-29.89-.06-10.71-2.23-21.44-8-29.53a29.13,29.13,0,0,0-11.27-9.44c-2.14-1.28-4.66-1.91-7.05-2.78a57.4,57.4,0,0,0-7.68-1.39c-10.48-1.32-21.51.22-32.21,2.6a199.31,199.31,0,0,0-31.61,10.27l-4.48,1.89.13-4.7c.35-13.25.48-26.51,1-39.76s.87-26.5,1.56-39.75Z"/></g></g></svg>