<svg xmlns="http://www.w3.org/2000/svg" viewBox="0 0 193.21 194.51"><defs><style>.cls-1{fill:#f58868;}.cls-2{fill:#c1995c;}.cls-3{fill:#8a3425;}.cls-4{fill:#c03831;}.cls-5{fill:#d03130;}.cls-6{fill:#f1c5b1;}.cls-7{fill:#c5a394;}.cls-8{fill:#fff;}.cls-9{fill:#fcf0ef;}</style></defs><g id="Layer_2" data-name="Layer 2"><g id="Layer_1-2" data-name="Layer 1"><path class="cls-1" d="M164.49,81.37c-.07-7.81-120.69-9.49-140.37,0s-10.54,113.14,60,113.14S164.82,123.71,164.49,81.37Z"/><path class="cls-2" d="M185.46,45.05a6,6,0,0,1,.77,1.54c.31.82.29.83.6,1.65a5,5,0,0,0,.66,1.36,5.73,5.73,0,0,0,1,1.21,5.72,5.72,0,0,0,1.39.72c.8.31.83.23,1.63.54s1.73.37,1.73.63-.88.44-1.68.75-.84.23-1.64.54a5.53,5.53,0,0,0-1.28.81,5.33,5.33,0,0,0-1.08,1,6,6,0,0,0-.85,1.27c-.31.82-.42.78-.73,1.6s-.14,1.25-.49,1.57-.3-.7-.61-1.52-.23-.85-.54-1.68a6,6,0,0,0-.73-1.39,5.79,5.79,0,0,0-1.14-1.07,6.09,6.09,0,0,0-1.44-.57c-.8-.31-.76-.42-1.56-.73s-1.73-.33-1.73-.62.92-.32,1.73-.63.82-.26,1.62-.57a5.9,5.9,0,0,0,2.35-1.91,5.17,5.17,0,0,0,.83-1.29c.32-.82.62-.77.72-1.64S185.3,44.89,185.46,45.05Z"/><path class="cls-2" d="M75.66,0a3.18,3.18,0,0,1,.45.9c.18.48.17.48.35,1a3.13,3.13,0,0,0,.39.8,3.51,3.51,0,0,0,.56.7,3.46,3.46,0,0,0,.81.42c.47.18.49.14,1,.32s1,.21,1,.37-.52.25-1,.43-.48.14-1,.32a3.26,3.26,0,0,0-.75.47,3,3,0,0,0-.63.61,2.65,2.65,0,0,0-.49.74c-.19.48-.25.45-.43.93s-.08.72-.29.91-.17-.4-.35-.88-.13-.5-.32-1a3.46,3.46,0,0,0-.42-.81,3.29,3.29,0,0,0-.67-.62,3.37,3.37,0,0,0-.83-.34c-.47-.18-.45-.24-.92-.42s-1-.2-1-.36.53-.19,1-.37.48-.16.95-.34a3.32,3.32,0,0,0,.76-.47,3.09,3.09,0,0,0,.61-.64A3,3,0,0,0,75,1.91c.19-.48.36-.45.42-1S75.57-.08,75.66,0Z"/><path class="cls-2" d="M15.58,146.5a7.15,7.15,0,0,1,1,1.95c.4,1,.37,1.05.76,2.08a6.71,6.71,0,0,0,.84,1.72,7.33,7.33,0,0,0,1.22,1.53,7,7,0,0,0,1.76.91c1,.4,1.05.3,2.06.69s2.19.46,2.19.8-1.12.55-2.13.94-1.05.29-2.07.69a6.66,6.66,0,0,0-1.62,1,6.8,6.8,0,0,0-1.36,1.32,6.78,6.78,0,0,0-1.08,1.61c-.39,1-.52,1-.92,2s-.18,1.57-.62,2-.38-.88-.77-1.92-.29-1.08-.69-2.12a7.53,7.53,0,0,0-.91-1.76,7.16,7.16,0,0,0-1.45-1.35,7.2,7.2,0,0,0-1.81-.72c-1-.39-1-.53-2-.92s-2.18-.43-2.18-.78S7,155.77,8,155.37s1-.33,2.06-.72a7,7,0,0,0,1.65-1A6.7,6.7,0,0,0,13,152.24a6.87,6.87,0,0,0,1-1.63c.4-1,.78-1,.91-2.08S15.38,146.29,15.58,146.5Z"/><path class="cls-2" d="M34.46,23.66A4.89,4.89,0,0,1,35.11,25c.26.69.24.7.5,1.39a4.93,4.93,0,0,0,.55,1.13,4.54,4.54,0,0,0,.82,1,4.72,4.72,0,0,0,1.16.6c.67.26.69.2,1.37.46s1.45.3,1.45.52-.74.37-1.42.63-.69.19-1.37.45a6.24,6.24,0,0,0-2,1.55,4.24,4.24,0,0,0-.71,1.07c-.27.68-.35.65-.62,1.34s-.11,1-.41,1.31-.25-.58-.51-1.27-.19-.72-.45-1.41a4.94,4.94,0,0,0-.61-1.16,4.82,4.82,0,0,0-1-.9,4.86,4.86,0,0,0-1.2-.48c-.67-.26-.64-.35-1.31-.61S28,30.31,28,30.07s.77-.27,1.45-.53.68-.22,1.35-.48a4.84,4.84,0,0,0,2-1.6,4.66,4.66,0,0,0,.69-1.07c.27-.69.52-.65.6-1.38S34.33,23.53,34.46,23.66Z"/><path class="cls-3" d="M153.62,62c-2.11,0-4-1.13-6.14-1.24-1.1,0-2.34.68-3.34-.25s-.32-2.2-.58-3.31a42.43,42.43,0,0,0-3.17-8.1,17,17,0,0,1,3.68,9c.17,1.62.49,2.28,2.32,2.18A13.54,13.54,0,0,1,153.62,62Z"/><path class="cls-3" d="M74.88,35.14a9.18,9.18,0,0,1-1.36-.49c-5-2.67-10-3-15.09-.49-.54.26-1,.69-1.71.54A15.34,15.34,0,0,1,74.88,35.14Z"/><path class="cls-3" d="M169.46,113.56c.29-1.85,1.16-3.55,1.18-5.51a12.5,12.5,0,0,0-.81-5.5c-.42-.92-.59-1.68.75-1.85-.9.59-.51,1.27-.22,2A12,12,0,0,1,169.46,113.56Z"/><path class="cls-3" d="M2.64,106.36a5.13,5.13,0,0,1-.2,1,17.69,17.69,0,0,0-1.61,8.48c0,.69.28,1.47-.32,2.09A16.33,16.33,0,0,1,2.64,106.36Z"/><path class="cls-4" d="M47.61,38.92a15.14,15.14,0,0,1-6.63,0A21.06,21.06,0,0,1,47.61,38.92Z"/><path class="cls-4" d="M92.48,31.62a16.68,16.68,0,0,1-6.18,0A16.26,16.26,0,0,1,92.48,31.62Z"/><path class="cls-3" d="M55.63,35.42a11.1,11.1,0,0,1-3.58,3.06A12,12,0,0,1,55.63,35.42Z"/><path class="cls-4" d="M.22,84.5a11.62,11.62,0,0,1,0,5.5A17.49,17.49,0,0,1,.22,84.5Z"/><path class="cls-3" d="M52,38.5c-.44,1.06-.86,2.2-2.2.79C50.8,39.67,51.39,39,52,38.5Z"/><path class="cls-5" d="M114.61,37h2.47c-1.06.27-2.14.67-3.19,0Z"/><path class="cls-3" d="M4.15,103.94a3.38,3.38,0,0,1-1.47,2.28A5.44,5.44,0,0,1,4.15,103.94Z"/><path class="cls-3" d="M140.39,49.15c-.71-.46-1.43-.91-1.46-1.89A5.41,5.41,0,0,1,140.39,49.15Z"/><path class="cls-5" d="M120.12,37c-.55.59-1.21.22-1.85.1l1.14-.15Z"/><path class="cls-3" d="M56.75,34.68c-.07.41-.37.47-.71.46Z"/><path class="cls-3" d="M56.06,35.13l-.46.32Z"/><path class="cls-6" d="M101.37,36.63c1.73.58,2.56,2.06,3.17,3.56.5,1.23,1.08,1.57,2.19.92,11.7-6.84,27.74.52,33.64,10.9a16.43,16.43,0,0,1-7.64,23.34,17.87,17.87,0,0,1-1.85.81c-1.84.57-3.42.92-5.47-.26-6.3-3.65-13.81.22-16.35,6.37-.22.53-.4,1.11.31,1.4s1-.24,1.25-.76A11.63,11.63,0,0,1,115,77.84c4.68-2.88,10.27-1.65,13.64,3a14.4,14.4,0,0,1,2.68,11.79c-.13.66-.36,1.5.51,1.72,1.08.27,1.07-.68,1.22-1.4a15.4,15.4,0,0,0-2.85-12.83c-.83-1.12-1-1.7.59-2.08a10.4,10.4,0,0,0,4.32-2c1.81-1.53,3.49-1,5.19,0,1.07.63,2.36,1.09,2.74,2.51a1.94,1.94,0,0,1-.7-.11c-.57-.35-1.18-.91-1.73-.1s.22,1.16.76,1.55a4.78,4.78,0,0,1,1.89,2.85,13.24,13.24,0,0,1,.44,4.35c-.05.55,0,1.23.67,1.31s1.08-.56,1.11-1.19c0-1-.05-2-.08-2.92,0-2-1.31-3.58-2-5.37,3.16,1.76,4.29,7.1,2.14,10.16-.21.3-.48.56-.68.87s-.58.86-.07,1.3,1,.18,1.43-.25a8.37,8.37,0,0,0,1.89-8.2,20,20,0,0,0-2.07-4.37c2.49-.8,4.72-.21,7,.73.58.24,1.43,1,1.9-.06s-.57-1.2-1.19-1.5a9.08,9.08,0,0,0-3.83-1.19c-1,0-2.14.2-2.21-1.44-.07-2,.59-3.25,2.13-3.59.59-.13,1.22-.13,1.8-.28s1-.4.81-1-.63-.64-1.17-.63c-3.64,0-5.35,1.82-5.33,5.51,0,.69.34,1.48-.6,1.93s-1.31-.38-1.82-.81a15.24,15.24,0,0,0-3.76-2.28c-.66-.3-.82-.57-.26-1.17a16.6,16.6,0,0,0,4.63-9.4c.13-1.06.82-1.16,1.7-1.2a17.59,17.59,0,0,1,9.76,2.85c5.21,3.09,9.34,7.14,10.77,13.32,0,.18.1.35.14.53.63,3.58.33,3.94-3.26,4a5,5,0,0,0-.55,0c-.93.14-2.35,0-2.27,1.23s1.37.48,2.12.54c.91.07,1.84,0,2.76,0a7.54,7.54,0,0,1,6.76,10c-.6-.54-.32-1.26-.35-1.9a7.13,7.13,0,0,0-4.11-6.23c-.53-.28-1.21-.71-1.64-.06s.21,1.14.73,1.43a6.66,6.66,0,0,1,3.45,6.38c0,1.26.53,1.62,1.62,1.57.07,1.36-.76,2.25-1.58,3.19s-1.47,1-2.39,0A12.33,12.33,0,0,0,157.4,95.2a5.28,5.28,0,0,0-1.41.34.74.74,0,0,0-.47.89c.08.44.41.58.81.58,1.11,0,2.21-.09,3.31-.05,4.65.18,9.07,3.94,9.78,8.29.84,5.18-2.25,10.78-6.78,12.43a2.46,2.46,0,0,1-2.85-.44,10.65,10.65,0,0,0-3.1-1.94c-1.73-.74-2.19-2-1.19-3.64a25,25,0,0,1,1.94-2.44c.43-.52,1-1.11.31-1.73s-1.17,0-1.55.48c-1.26,1.67-3.17,3-2.94,5.48.07.76-.4.9-1,.94a16.9,16.9,0,0,0-9.41,3.22,2.62,2.62,0,0,1-2.12.29,20.15,20.15,0,0,0-11.27,1.74,13.24,13.24,0,0,0-6.34,5.91,2.17,2.17,0,0,1-2.33,1.3,23.75,23.75,0,0,0-7.82.7,17,17,0,0,0-9.8,7,1.88,1.88,0,0,1-2.29.93,8.53,8.53,0,0,0-2.37-.16c-2.46.15-5.08.89-6.34-2.3-.11-.27-.58-.43-.91-.59-.7-.33-1.58-1-2.08,0s.61,1.13,1.19,1.49a4.37,4.37,0,0,1,1.46,5.81,11.46,11.46,0,0,0-.72,1.27.79.79,0,0,0,1.33.85,5.12,5.12,0,0,0,1.56-3c.07-.89.48-1.23,1.32-1.44a21.55,21.55,0,0,1,5.13-.25c1,0,1.1.57.84,1.34-.19.55-.1,1,.48,1.18s1-.2,1.18-.8c3.34-9,12.54-11.61,20.94-9.77a10.47,10.47,0,0,0,1.07.27.86.86,0,0,0,1-.65.65.65,0,0,0-.48-.86c-1.81-.48-.93-1.48-.39-2.26a14,14,0,0,1,9.46-5.78,21.84,21.84,0,0,1,9.81.51c.76.2,1.74.7,2.1-.28s-.83-1.11-1.47-1.51c5.58-4,13.53-2.91,16.12,3.6,1.59,4,.1,8.32-3.43,9.87a11.06,11.06,0,0,1-3.4.64c-1,.11-2.46.49-1.72-1.51a.69.69,0,0,0-.42-.91.67.67,0,0,0-1,.29c-2.25,4.77-6.74,4.34-10.91,4.8-5.49.59-11,1.21-15.58,4.77-1.2.94-2.36,1.94-3.53,2.93-4.15,3.52-8.61,5.88-14.26,3.88-.52-.18-1-.19-1.25.36s.15,1,.68,1.27a12.29,12.29,0,0,0,1.21.41c.34.11.68.24,1.31.47a13.62,13.62,0,0,1-5.85,3.06C90.62,156,78.85,147.7,75.4,138c-1.55-4.39-.17-9.15,4-12.44A29.81,29.81,0,0,1,97.26,119a3.39,3.39,0,0,1,.63.15l-1,1.8c-.31.57-.56,1.2.19,1.58s1.06-.26,1.38-.8a17.9,17.9,0,0,1,10.35-8.31A45,45,0,0,1,124,110.9a28,28,0,0,1,7.93,1.34c.64.21,1.38.55,1.86-.12s-.29-1-.74-1.35,0-.74.27-1a47.88,47.88,0,0,1,10.78-7.58c.67-.33,1.34-.65,1-1.45s-1.2-.47-1.76-.16a45.61,45.61,0,0,0-7.26,4.64c-.55.46-1,1.12-1.88,1.12a4.09,4.09,0,0,1,1.32-3.64c1.06-1,2.13-2,3.17-3.07.34-.35.69-.78.23-1.28a.9.9,0,0,0-1.33-.06c-2.58,2.4-5.62,4.49-5.28,8.72.14,1.78-1.23,2.85-3.05,2.58-8.09-1.24-15.84.12-23.36,3.16a11.93,11.93,0,0,0-4.32,2.72,6.19,6.19,0,0,1-4.44,1.78c-6.91.53-13.31,2.52-18.83,6.91a13,13,0,0,0-3.82,16.15c1.05,2.28.89,2.61-1.56,3.18-4.22,1-9.51-2-10.79-6a8.92,8.92,0,0,1,5-11.26c.34-.15.71-.22,1-.38s.76-.49.64-1-.65-.64-1.17-.61l-.18,0c-.83,0-1.66,1.19-2.33.42s-.26-1.9-.22-2.87c.16-4.27,2.26-7.69,4.93-10.81a14.31,14.31,0,0,1,10.08-5.4c1.32-.1,2-.12,1.2,1.41-.32.59-.49,1.22.26,1.57s1.07-.31,1.35-.86a11.66,11.66,0,0,1,5-5.58c-.35,1.33-1.56,2.13-2.06,3.37-.22.53-.79,1.12,0,1.6s1.24,0,1.58-.68a8.8,8.8,0,0,1,3.4-3.7c.59-.35,1.59-.59,1.28-1.51s-1.26-.45-2-.52c3.17-2.36,6.89-3.4,10.67-4.08,6.5-1.17,12.16,1.12,17.41,4.74.15.11.27.25.43.35.59.34,1.2,1.18,1.84.21.53-.79-.2-1.2-.75-1.59a28.64,28.64,0,0,0-5.7-3.34c-1.13-.47-1.27-.92-.44-1.8a28.41,28.41,0,0,0,3.89-5.34c.38-.64,1.46-1.49.41-2.17s-1.39.58-1.83,1.24a39.74,39.74,0,0,1-4.16,5.59,2.32,2.32,0,0,1-2.57.79,20.26,20.26,0,0,0-10.87,0c-1.5.44-1.91,0-1.82-1.41a6.09,6.09,0,0,0,0-.74c0-.62.41-1.53-.6-1.63-1.16-.12-1.32.94-1.15,1.67.64,2.71-.84,3.66-3.07,4.52a23,23,0,0,0-8,5.43c-.38.38-.65.81-1.36.76-6.24-.52-11,2.19-14.71,7-2.73,3.52-4.37,3.89-8.24,1.57C55,109.86,53,105.65,51.65,101c-.46-1.58-.71-3.22-1.12-4.82a6.93,6.93,0,0,0-8.26-5c-.73.17-1.8.34-1.55,1.42s1.16.48,1.84.35C46,92.37,48.3,94,49,97.35c.38,1.73.72,3.48,1.26,5.16.35,1.08.15,1.54-.93,1.88a12.91,12.91,0,0,0-6.22,4.39c-.46.57-1.24,1.39-.35,2s1.23-.35,1.69-.91a12,12,0,0,1,5.29-3.82,1.59,1.59,0,0,1,2.34.88,16.79,16.79,0,0,0,7.79,7.76,13.27,13.27,0,0,0,4.57,1.09c-1,2.71-1.81,5.4-1.33,8.15a5.23,5.23,0,0,1-1.32,4.43,9.79,9.79,0,0,0-1.16,10.08c.55,1.35.29,1.83-1.05,2.38a42.52,42.52,0,0,1-14.94,3.51c-8.5.23-15.9-2.46-21.34-9.38-1.79-2.27-1.76-2.22.81-3.7a52.45,52.45,0,0,1,9-4.54c1.18-.41,1.66-.23,2.17,1a14.79,14.79,0,0,0,5.06,6.85c.47.33,1,.95,1.55.17s0-1.08-.52-1.51a15,15,0,0,1-4.44-6c-.38-.91-.49-1.45.88-1.69a16.16,16.16,0,0,1,10.83,1.8c.65.36,1.38,1,1.89.12s-.48-1.2-1-1.59a15.65,15.65,0,0,0-5.46-2.06c-.72-.16-2,.2-1.85-1.14a2.28,2.28,0,0,1,2.17-2.15,10.55,10.55,0,0,1,4.11.83c.63.21,1.43.67,1.78-.17s-.53-1.21-1.21-1.42a27.07,27.07,0,0,0-3.35-1,4.06,4.06,0,0,0-5.09,3.3,1.76,1.76,0,0,1-1.7,1.55,35.17,35.17,0,0,0-14.8,5.6,15.12,15.12,0,0,1-6.31,2.39c-3.76.46-6.39-1.55-9-3.8-4.23-3.68-7.41-7.83-6.9-13.87a17.74,17.74,0,0,1,3.82-9.56c.62-.79,1.14-.94,1.94-.24A16.29,16.29,0,0,0,16.33,108c.73.1,1,.36,1.09,1.13.58,4.28,5.18,7.75,9.57,7.46,2.34-.15,4.67-.17,6.75-1.44.55-.33,1.44-.61,1.08-1.43s-1.25-.49-1.89-.13c-2.34,1.34-4.95,1.28-7.49,1.39-2,.09-5.86-3.41-6.21-5.39-.2-1.13.24-1.44,1.36-1.56,5.38-.59,10.25-2.34,13.94-6.56.33-.37.66-.73,1-1.11s.52-1,0-1.48-1.05,0-1.36.4a14.55,14.55,0,0,1-3.24,3.22c-5.6,4.11-15.47,5.73-22,.59-7-5.51-9.45-17.27-5.06-25C6.72,73,10.46,69,16,67c4.19-1.48,8.55-2.16,12.89-.29a9,9,0,0,1,2.57,1.74c.46.43,1,.92,1.59.35s0-1.25-.47-1.69a12.86,12.86,0,0,0-8.39-3.23c-.76,0-1.73.4-2.09-.87a2.16,2.16,0,0,1,1-2.38,5.57,5.57,0,0,1,5-1,16.61,16.61,0,0,1,4.31,1.56c.54.26,1.11.28,1.42-.35s-.13-.79-.46-1.08c-2.3-1.93-7.91-2.55-10.5-1.07-1.67,1-2.89,2.26-2.52,4.44.3,1.73-1.22,1.19-2,1.41-1.06.31-1-.61-.93-1.28a21,21,0,0,1,6.35-13.89c5.91-6.06,13.09-9.34,21.71-9,.12,0,.25,0,.37,0,1.2.2,2.85,0,3.48.71S48.6,43,48.19,44c-2.25,5.59-2.65,11.05,1,16.28a4.52,4.52,0,0,0,.57.72c.45.43.81,1.33,1.61.69s.12-1.27-.28-1.76c-5-6-2.62-15.17,1.78-19.91,3.16-3.4,6.85-6.1,11.66-6.3,8.42-.35,14.85,5.22,15.55,14.19a20.38,20.38,0,0,1-2.36,11.18c-.22.43-.44.87-.67,1.3a.91.91,0,0,0,.41,1.39c.6.32.88-.13,1.15-.56a23,23,0,0,0,2.3-5.2,20.65,20.65,0,0,0,.35-11.76c-.15-.54-.77-1.16-.12-1.68A2.71,2.71,0,0,1,83.67,42a6,6,0,0,1,4.1,5.36,8.67,8.67,0,0,1-.25,3.47A.86.86,0,0,0,88,52c.66.23,1-.21,1.22-.78,1.61-3.67-.45-9.1-4.15-10.66a5.49,5.49,0,0,0-4,0,1.17,1.17,0,0,1-1.72-.77c-.32-.83-1.26-1.47-.22-2.58,3.31-3.5,7.44-4.64,12-4.2a26.79,26.79,0,0,1,9.59,3c.25.12.4.43.6.65-1,.17-1.81-.63-2.75-.85-.63-.15-1.24-.41-1.55.36s.29,1,.91,1.27a7.29,7.29,0,0,1,3.45,2.27c.34.48.7,1.24,1.4.72s.35-1.27-.13-1.9S101.34,37.58,101.37,36.63ZM53.14,76.52c-1.45-.37-2.74-.74-4-1-6.62-1.43-12.44-.23-16.75,5.4a45.52,45.52,0,0,0-3.44,5.42C26.16,91.14,19.69,94,14.36,92c-.6-.22-1.33-.35-1.56.4s.48,1.06,1.06,1.26a12,12,0,0,0,6.33.55c5.26-1,8.82-4.19,11.3-8.83a17.8,17.8,0,0,1,4.66-6.07c4.39-3.34,9.2-3,14.2-1.83,2.2.51,3.37,1.53,3.68,3.79.14,1,.19,1.23-1,1.1a11.37,11.37,0,0,0-7.43,1.41c-.48.3-1.2.73-.78,1.44s1.08.41,1.62.07a10.22,10.22,0,0,1,6.2-1.21c.92,0,2-.1,2.57.69a50.56,50.56,0,0,1,2.89,4.86c.09.17-.32.61-.5.92a4.61,4.61,0,0,0-.64,4,15.79,15.79,0,0,0,4.63,6.05c.35.31.9.59,1.3,0a1,1,0,0,0-.24-1.32,30.42,30.42,0,0,1-3.29-3.7,3.61,3.61,0,0,1-.66-3.29c.3-1,.75-1.56,1.7-.47a11.18,11.18,0,0,0,1.77,1.6.89.89,0,0,0,1.31-.2c.35-.45,0-.8-.27-1.12-.87-.86-1.82-1.65-2.61-2.59-5-5.89-7.31-12.36-4.36-20,1.64-4.26,4.23-8,6.24-12.07.46-.92.89-.53,1.4-.09A8.44,8.44,0,0,1,66.85,63c.07.58.21,1.32,1.06,1.21s.71-.88.66-1.45a9.43,9.43,0,0,0-3.83-6.85,2,2,0,0,1-.84-2.57,26.48,26.48,0,0,0,1-8.72c0-.61.32-1.54-.65-1.65-1.16-.14-.88,1-1,1.59A13.41,13.41,0,0,0,63.13,47,26,26,0,0,1,59.6,59.36C56.47,64.72,53.34,70.05,53.14,76.52ZM93.88,56.89c2.87,0,3.5.54,4,2.91.85,4,2.77,7.58,3.6,11.56,1,5,1.26,9.75-2.46,13.86-.37.4-.73,1-.11,1.43s1.17,0,1.56-.47a14,14,0,0,0,3.42-8.71,28.16,28.16,0,0,0-2.54-12.32c-2.9-6.67-2.68-12.84,2.24-18.5a2.85,2.85,0,0,0,.31-.46c.32-.53.72-1.13,0-1.6s-1,.18-1.35.59a20.87,20.87,0,0,0-4.19,7.28c-.6,2.19-1,4-3.81,2.68-.24-.1-.6.06-.9.11-3.62.57-8,5.12-8.47,8.74-.07.53,0,1.05.54,1.21s.94-.27,1.1-.75a13.34,13.34,0,0,1,2.12-4.06C90.33,58.6,91.74,56.74,93.88,56.89ZM77.08,89a11.72,11.72,0,0,0,.63,4.25c.2.69.19,1.68,1.26,1.37.91-.27.52-1,.34-1.71-2.4-9,3.91-18.4,11.74-20a44.44,44.44,0,0,1,4.46-1c.59-.06,1.13-.33,1-1s-.7-.76-1.31-.66C88.71,71.26,83,73.55,79.66,79.69c-.49.9-.92.76-1.52.14-2.14-2.19-2.9-4.63-1.45-7.51.26-.53.42-1.09-.29-1.38a.92.92,0,0,0-1.3.65c-.79,2.22-1.41,4.44-.18,6.74a10.31,10.31,0,0,0,2.67,3.23c1,.83.25,1.68.16,2.51s-.57,1.12-1.4,1.14a4.68,4.68,0,0,0-4.68,3.9,33.64,33.64,0,0,0-.75,3.59c-.1.61-.46,1.49.49,1.69s1.09-.67,1.25-1.41c.34-1.54.27-3.19,1.17-4.6a2.72,2.72,0,0,1,2.72-1.52C77.68,87.12,76.76,88.37,77.08,89ZM37.65,56.56a13.72,13.72,0,0,0,4.46,10.11c.43.39.89.75,1.44.24s.12-1-.23-1.41c-.48-.56-1-1.07-1.46-1.64-3.48-4.53-3.15-9.91.85-13.92.35-.35.55-.66.27-1.1a.79.79,0,0,0-1.12-.29,6.33,6.33,0,0,0-1.24.78A8.74,8.74,0,0,0,37.65,56.56Zm71.43,7.93c0,3.83,1.29,7.18,3.37,8.85.46.37.9.7,1.43.17s.08-.89-.21-1.28A17.67,17.67,0,0,1,112,69.88a11.58,11.58,0,0,1,.09-10.4c.25-.56.71-1.19,0-1.61s-1.17.36-1.46.92A10.82,10.82,0,0,0,109.08,64.49ZM4.58,82.24c-.07.89.16,1.36.68,1.43.72.1.94-.43,1.1-1a20.74,20.74,0,0,1,6.26-10.14c.41-.36.87-.81.35-1.39s-1-.36-1.47,0A22.16,22.16,0,0,0,4.58,82.24ZM138.42,51.36a1.31,1.31,0,0,0-.12-.35,21,21,0,0,0-9.19-8.38,1,1,0,0,0-1.43.41c-.24.57.25.92.67,1.15a29.51,29.51,0,0,1,3.59,2.2,18.51,18.51,0,0,1,4.73,5.28c.22.37.44.8,1,.62A1.09,1.09,0,0,0,138.42,51.36ZM24.59,83.41c.37,0,.74,0,1.1,0a.82.82,0,0,0,.86-.78c0-.56-.36-.71-.83-.73-4-.2-6.35-2.42-7.57-6.07-.2-.59-.51-1-1.19-.76s-.56.66-.47,1.22C17.07,79.74,21.1,83.31,24.59,83.41Zm-1.68-28c.76,0,.88-.65,1.13-1.12a13.7,13.7,0,0,1,5.83-5.89,5.57,5.57,0,0,0,.78-.47.81.81,0,0,0,.25-1.13.77.77,0,0,0-1.07-.41,15.23,15.23,0,0,0-7.67,7.78C21.84,54.94,22.19,55.34,22.91,55.43Zm136.51,70.91c.73-.07.92-.56.81-1.17a33.21,33.21,0,0,0-.78-3.56,6.13,6.13,0,0,0-4.07-3.92,1.12,1.12,0,0,0-1.48.34c-.39.67.16,1.13.64,1.27,2.83.84,3.56,3.09,3.87,5.63A1.64,1.64,0,0,0,159.42,126.34Zm-83,7c0,.27,0,1,.76,1.14s.91-.56,1-1.19c.48-2.4,1.36-4.56,3.57-5.94a1.61,1.61,0,0,0,.45-.57c.21-.38.42-.77,0-1.15a.84.84,0,0,0-1.16,0A10.41,10.41,0,0,0,76.42,133.32Zm86.77-59.77c-.16-.32-.34-.77-.59-1.18a16.3,16.3,0,0,0-5.44-5c-.5-.33-1.12-.76-1.56,0s0,1.15.62,1.47a13.53,13.53,0,0,1,4.17,3.5c.52.6.94,1.28,1.43,1.9a.78.78,0,0,0,1,.21C163.14,74.32,163.18,74,163.19,73.55ZM58.32,37.72C56.4,37.79,52,42.14,51.89,44a.9.9,0,0,0,.55.86.73.73,0,0,0,1.07-.39,12,12,0,0,1,5.35-5.32.79.79,0,0,0,.41-1.09C59.08,37.66,58.68,37.72,58.32,37.72ZM80.73,85c0,.73-.07,1.41.62,1.53s1-.65,1.11-1.2a11.65,11.65,0,0,1,2.75-5.88c.37-.39.89-.83.27-1.37a1.08,1.08,0,0,0-1.63.22A13.34,13.34,0,0,0,80.73,85ZM6,107.75c-.72,0-1,.49-1.21,1a12.79,12.79,0,0,0-1.33,6.55c0,.54-.07,1.18.74,1.21s1.09-.49,1.07-1.18a11.32,11.32,0,0,1,1.32-6.17C6.93,108.47,6.66,108,6,107.75ZM126,71.92a2.22,2.22,0,0,0,.56-.24,33.34,33.34,0,0,1,5.64-4,.71.71,0,0,0,.24-1.1.91.91,0,0,0-1.29-.26,29.12,29.12,0,0,0-5.92,4.25.71.71,0,0,0-.21.82A.85.85,0,0,0,126,71.92Zm-3.39-10.63c-.4,0-.72.14-1.07.68a10.21,10.21,0,0,0-1.47,7.15c.07.51.17,1,.83,1s.76-.66.74-1.21a10.06,10.06,0,0,1,1.46-6.28C123.53,62,123.36,61.47,122.61,61.29Z"/><path class="cls-7" d="M155.12,139.89c-.17,5.67-2.09,9.87-7.5,11.56a90.16,90.16,0,0,0-8.61,3.68c-4.83,2.07-9.45,1.14-14-1-1.05-.49-.67-.92-.05-1.41a18.68,18.68,0,0,1,8.86-3.79c2.41-.38,4.86-.53,7.29-.81a8,8,0,0,0,5.57-2.88c1.18-1.48,2.18-3.1,3.26-4.66.33-.47.67-1,.09-1.46s-1.14,0-1.51.53a21.54,21.54,0,0,0-1.43,2.14c-1.82,3.47-4.75,4.87-8.57,4.9a33.12,33.12,0,0,0-8,1.26,17.71,17.71,0,0,0-7.35,4,1.1,1.1,0,0,1-1.72.07c-.66-.55-1.41-1-2.06-1.54-2.45-2.06-2.39-2.32.14-4.13,1.74-1.24,3.29-2.75,5-4a26.72,26.72,0,0,1,13.81-5c2.25-.16,4.47-.6,6.73-.82a10,10,0,0,0,4.57-1.79c2.13-1.43,4.06-.75,4.87,1.67A8,8,0,0,1,155.12,139.89Zm-12.49.56c0-.62.13-1.19-.49-1.36s-.87.31-1,.8c-.64,2-2.29,2.73-4.15,3.14a20.48,20.48,0,0,1-3.83.39c-3.68.14-7.14,1-9.89,3.66-.47.45-.89,1-.33,1.57s1,0,1.4-.38a13.07,13.07,0,0,1,8.77-3.12,14.21,14.21,0,0,0,6.1-1.07A5.48,5.48,0,0,0,142.63,140.45Zm11.74,0a5.3,5.3,0,0,0-.68-3.06.83.83,0,0,0-.9-.49.77.77,0,0,0-.59,1c.88,2.79.1,5.27-1.3,7.67-.28.48-.46,1.09.22,1.42s1.06-.05,1.35-.59C153.46,144.57,154.44,142.74,154.37,140.46Zm-17.68,10a7.62,7.62,0,0,0-3.75,1.36c-.46.34-.89.75-.5,1.37s1,.36,1.43,0a5.22,5.22,0,0,1,5.06-.58,6.74,6.74,0,0,0,.88.24c.52.09,1,0,1.2-.57s-.27-.92-.76-1C139,151,137.76,150.7,136.69,150.46Z"/><path class="cls-7" d="M103.39,154.24a4.26,4.26,0,0,1,4.88-.08,5.81,5.81,0,0,0,6.72-.61c.46-.35,1-.68.51-1.33s-1-.35-1.45,0a4.56,4.56,0,0,1-4.84.61c-.83-.39-1.09-.75-.15-1.36s1.89-1.71,3-2.07c1.86-.6,3.65-1.32,5.28,1.18,1.78,2.72,4.92,4.16,7.87,5.55a2.33,2.33,0,0,1,1.45,1.49,36.11,36.11,0,0,0,4.07,8.61,3.62,3.62,0,0,1-2.93,5.54c-3,.26-5-1.39-6.51-3.7-1.86-2.82-3-6-4.5-9-.69-1.43,1.08-1.43,1.71-2s.87.29,1.06.7c1.46,3.23,2.72,6.57,4.73,9.53.35.5.72,1,1.09,1.48s.68,1.16,1.43.56c.58-.46.27-1-.08-1.44-2.73-3.76-4.46-8-6.18-12.28-.72-1.78-1.14-1.85-2.57-.53C113.78,158.89,106.62,158.54,103.39,154.24Z"/><path class="cls-8" d="M143.43,78.89c.65,1.79,1.91,3.36,2,5.37,0,1,.12,1.95.08,2.92,0,.63-.36,1.27-1.11,1.19s-.72-.76-.67-1.31a13.24,13.24,0,0,0-.44-4.35,4.78,4.78,0,0,0-1.89-2.85c-.54-.39-1.31-.73-.76-1.55s1.16-.25,1.73.1a1.94,1.94,0,0,0,.7.11Z"/><path class="cls-8" d="M171.75,95.63c-1.09.05-1.64-.31-1.62-1.57a6.66,6.66,0,0,0-3.45-6.38c-.52-.29-1.19-.75-.73-1.43s1.11-.22,1.64.06a7.13,7.13,0,0,1,4.11,6.23c0,.64-.25,1.36.35,1.9Z"/><path class="cls-8" d="M90,100.72c.69.07,1.65-.36,2,.52s-.69,1.16-1.28,1.51a8.8,8.8,0,0,0-3.4,3.7c-.34.69-.81,1.15-1.58.68s-.2-1.07,0-1.6c.5-1.24,1.71-2,2.06-3.37l.42-.32.36-.29Z"/><path class="cls-6" d="M88.53,101.55l-.36.29A.27.27,0,0,1,88.53,101.55Z"/><path class="cls-3" d="M53.14,76.52c.2-6.47,3.33-11.8,6.46-17.16A26,26,0,0,0,63.13,47a13.41,13.41,0,0,1,.14-2.38c.13-.61-.15-1.73,1-1.59,1,.11.62,1,.65,1.65a26.48,26.48,0,0,1-1,8.72,2,2,0,0,0,.84,2.57,9.43,9.43,0,0,1,3.83,6.85c.05.57.25,1.34-.66,1.45s-1-.63-1.06-1.21a8.44,8.44,0,0,0-2.94-5.55c-.51-.44-.94-.83-1.4.09-2,4.06-4.6,7.81-6.24,12.07-3,7.66-.64,14.13,4.36,20,.79.94,1.74,1.73,2.61,2.59.31.32.62.67.27,1.12a.89.89,0,0,1-1.31.2A11.18,11.18,0,0,1,60.43,92c-1-1.09-1.4-.57-1.7.47a3.61,3.61,0,0,0,.66,3.29,30.42,30.42,0,0,0,3.29,3.7,1,1,0,0,1,.24,1.32c-.4.54-1,.26-1.3,0A15.79,15.79,0,0,1,57,94.63a4.61,4.61,0,0,1,.64-4c.18-.31.59-.75.5-.92a50.56,50.56,0,0,0-2.89-4.86c-.56-.79-1.65-.65-2.57-.69a10.22,10.22,0,0,0-6.2,1.21c-.54.34-1.24.59-1.62-.07s.3-1.14.78-1.44a11.37,11.37,0,0,1,7.43-1.41c1.16.13,1.11-.07,1-1.1-.31-2.26-1.48-3.28-3.68-3.79-5-1.16-9.81-1.51-14.2,1.83a17.8,17.8,0,0,0-4.66,6.07c-2.48,4.64-6,7.82-11.3,8.83a12,12,0,0,1-6.33-.55c-.58-.2-1.29-.52-1.06-1.26s1-.62,1.56-.4c5.33,2,11.8-.9,14.54-5.73a45.52,45.52,0,0,1,3.44-5.42c4.31-5.63,10.13-6.83,16.75-5.4C50.4,75.78,51.69,76.15,53.14,76.52Z"/><path class="cls-3" d="M93.88,56.89c-2.14-.15-3.55,1.71-4.94,3.5a13.34,13.34,0,0,0-2.12,4.06c-.16.48-.53.91-1.1.75s-.61-.68-.54-1.21c.45-3.62,4.85-8.17,8.47-8.74.3,0,.66-.21.9-.11,2.83,1.28,3.21-.49,3.81-2.68a20.87,20.87,0,0,1,4.19-7.28c.33-.41.71-1,1.35-.59s.33,1.07,0,1.6a2.85,2.85,0,0,1-.31.46c-4.92,5.66-5.14,11.83-2.24,18.5a28.16,28.16,0,0,1,2.54,12.32,14,14,0,0,1-3.42,8.71c-.39.46-.9,1-1.56.47s-.26-1,.11-1.43c3.72-4.11,3.48-8.88,2.46-13.86-.83-4-2.75-7.6-3.6-11.56C97.38,57.43,96.75,56.94,93.88,56.89Z"/><path class="cls-3" d="M77.08,89c-.32-.64.6-1.89-.53-2.15a2.72,2.72,0,0,0-2.72,1.52c-.9,1.41-.83,3.06-1.17,4.6-.16.74-.22,1.62-1.25,1.41s-.59-1.08-.49-1.69a33.64,33.64,0,0,1,.75-3.59,4.68,4.68,0,0,1,4.68-3.9c.83,0,1.31-.37,1.4-1.14s.88-1.68-.16-2.51a10.31,10.31,0,0,1-2.67-3.23c-1.23-2.3-.61-4.52.18-6.74a.92.92,0,0,1,1.3-.65c.71.29.55.85.29,1.38-1.45,2.88-.69,5.32,1.45,7.51.6.62,1,.76,1.52-.14,3.34-6.14,9-8.43,15.51-9.48.61-.1,1.17,0,1.31.66s-.38,1-1,1a44.44,44.44,0,0,0-4.46,1c-7.83,1.56-14.14,11-11.74,20,.18.66.57,1.44-.34,1.71-1.07.31-1.06-.68-1.26-1.37A11.72,11.72,0,0,1,77.08,89Z"/><path class="cls-3" d="M37.65,56.56a8.74,8.74,0,0,1,3-7.23,6.33,6.33,0,0,1,1.24-.78.79.79,0,0,1,1.12.29c.28.44.08.75-.27,1.1-4,4-4.33,9.39-.85,13.92.44.57,1,1.08,1.46,1.64.35.41.81.86.23,1.41s-1,.15-1.44-.24A13.72,13.72,0,0,1,37.65,56.56Z"/><path class="cls-3" d="M109.08,64.49a10.82,10.82,0,0,1,1.47-5.7c.29-.56.6-1.4,1.46-.92s.28,1.05,0,1.61a11.58,11.58,0,0,0-.09,10.4,17.67,17.67,0,0,0,1.72,2.35c.29.39.7.79.21,1.28s-1,.2-1.43-.17C110.37,71.67,109,68.32,109.08,64.49Z"/><path class="cls-9" d="M4.58,82.24a22.16,22.16,0,0,1,6.92-11c.46-.39,1-.55,1.47,0s.06,1-.35,1.39A20.74,20.74,0,0,0,6.36,82.7c-.16.54-.38,1.07-1.1,1C4.74,83.6,4.51,83.13,4.58,82.24Z"/><path class="cls-8" d="M138.42,51.36a1.09,1.09,0,0,1-.78.93c-.53.18-.75-.25-1-.62a18.51,18.51,0,0,0-4.73-5.28,29.51,29.51,0,0,0-3.59-2.2c-.42-.23-.91-.58-.67-1.15a1,1,0,0,1,1.43-.41A21,21,0,0,1,138.3,51,1.31,1.31,0,0,1,138.42,51.36Z"/><path class="cls-3" d="M24.59,83.41c-3.49-.1-7.52-3.67-8.1-7.13-.09-.56-.06-1,.47-1.22s1,.17,1.19.76c1.22,3.65,3.58,5.87,7.57,6.07.47,0,.87.17.83.73a.82.82,0,0,1-.86.78C25.33,83.43,25,83.41,24.59,83.41Z"/><path class="cls-9" d="M22.91,55.43c-.72-.09-1.07-.49-.75-1.24a15.23,15.23,0,0,1,7.67-7.78.77.77,0,0,1,1.07.41A.81.81,0,0,1,30.65,48a5.57,5.57,0,0,1-.78.47A13.7,13.7,0,0,0,24,54.31C23.79,54.78,23.67,55.39,22.91,55.43Z"/><path class="cls-8" d="M159.42,126.34a1.64,1.64,0,0,1-1-1.41c-.31-2.54-1-4.79-3.87-5.63-.48-.14-1-.6-.64-1.27a1.12,1.12,0,0,1,1.48-.34,6.13,6.13,0,0,1,4.07,3.92,33.21,33.21,0,0,1,.78,3.56C160.34,125.78,160.15,126.27,159.42,126.34Z"/><path class="cls-8" d="M76.42,133.32a10.41,10.41,0,0,1,4.64-7.7.84.84,0,0,1,1.16,0c.43.38.22.77,0,1.15a1.61,1.61,0,0,1-.45.57c-2.21,1.38-3.09,3.54-3.57,5.94-.12.63-.19,1.35-1,1.19S76.46,133.59,76.42,133.32Z"/><path class="cls-8" d="M163.19,73.55c0,.46-.05.77-.38.91a.78.78,0,0,1-1-.21c-.49-.62-.91-1.3-1.43-1.9a13.53,13.53,0,0,0-4.17-3.5c-.63-.32-1-.79-.62-1.47s1.06-.38,1.56,0a16.3,16.3,0,0,1,5.44,5C162.85,72.78,163,73.23,163.19,73.55Z"/><path class="cls-8" d="M58.32,37.72c.36,0,.76-.06,1,.35a.79.79,0,0,1-.41,1.09,12,12,0,0,0-5.35,5.32.73.73,0,0,1-1.07.39.9.9,0,0,1-.55-.86C52,42.14,56.4,37.79,58.32,37.72Z"/><path class="cls-8" d="M80.73,85a13.34,13.34,0,0,1,3.12-6.7,1.08,1.08,0,0,1,1.63-.22c.62.54.1,1-.27,1.37a11.65,11.65,0,0,0-2.75,5.88c-.12.55-.29,1.34-1.11,1.2S80.73,85.75,80.73,85Z"/><path class="cls-8" d="M6,107.75c.7.22,1,.72.59,1.39a11.32,11.32,0,0,0-1.32,6.17c0,.69-.28,1.2-1.07,1.18s-.72-.67-.74-1.21a12.79,12.79,0,0,1,1.33-6.55C5,108.24,5.24,107.72,6,107.75Z"/><path class="cls-3" d="M126,71.92a.85.85,0,0,1-1-.54.71.71,0,0,1,.21-.82,29.12,29.12,0,0,1,5.92-4.25.91.91,0,0,1,1.29.26.71.71,0,0,1-.24,1.1,33.34,33.34,0,0,0-5.64,4A2.22,2.22,0,0,1,126,71.92Z"/><path class="cls-3" d="M122.61,61.29c.75.18.92.69.49,1.33a10.06,10.06,0,0,0-1.46,6.28c0,.55.06,1.17-.74,1.21s-.76-.48-.83-1A10.21,10.21,0,0,1,121.54,62C121.89,61.43,122.21,61.27,122.61,61.29Z"/><path class="cls-8" d="M101.37,36.63c0,.95.86,1.26,1.32,1.87s.9,1.33.13,1.9-1.06-.24-1.4-.72A7.29,7.29,0,0,0,98,37.41c-.62-.24-1.21-.5-.91-1.27s.92-.51,1.55-.36c.94.22,1.7,1,2.75.85Z"/><path class="cls-3" d="M142.63,140.45a5.48,5.48,0,0,1-3.45,3.63,14.21,14.21,0,0,1-6.1,1.07,13.07,13.07,0,0,0-8.77,3.12c-.41.34-.85.93-1.4.38s-.14-1.12.33-1.57c2.75-2.68,6.21-3.52,9.89-3.66A20.48,20.48,0,0,0,137,143c1.86-.41,3.51-1.1,4.15-3.14.16-.49.43-1,1-.8S142.65,139.83,142.63,140.45Z"/><path class="cls-8" d="M154.37,140.46c.07,2.28-.91,4.11-1.9,5.94-.29.54-.75.87-1.35.59s-.5-.94-.22-1.42c1.4-2.4,2.18-4.88,1.3-7.67a.77.77,0,0,1,.59-1,.83.83,0,0,1,.9.49A5.3,5.3,0,0,1,154.37,140.46Z"/><path class="cls-3" d="M136.69,150.46c1.07.24,2.33.5,3.56.82.49.12,1,.41.76,1s-.68.66-1.2.57a6.74,6.74,0,0,1-.88-.24,5.22,5.22,0,0,0-5.06.58c-.42.32-1,.63-1.43,0s0-1,.5-1.37A7.62,7.62,0,0,1,136.69,150.46Z"/><path class="cls-3" d="M92.48,31.62c5.22.88,10.22,2.18,13.23,7.11.5.82,1,.44,1.52.2a19.12,19.12,0,0,1,6.66-1.88c1,.62,2.13.22,3.19,0h-2.47a11.94,11.94,0,0,1,4.8,0l-1.14.15c.64.12,1.3.49,1.85-.1a28.79,28.79,0,0,1,18.81,10.22c0,1,.75,1.43,1.46,1.89h0a42.43,42.43,0,0,1,3.17,8.1c.26,1.11-.4,2.39.58,3.31s2.24.2,3.34.25c2.14.11,4,1.2,6.14,1.24,7.41,3.42,13,8.43,14.54,16.88a11,11,0,0,0,3,6c4.1,4.13,3.79,12.29-.6,15.78-1.34.17-1.17.93-.75,1.85a12.5,12.5,0,0,1,.81,5.5c0,2-.89,3.66-1.18,5.51a10.57,10.57,0,0,1-6.21,5.65c-1.29.47-1.31.88-.81,2a9.74,9.74,0,0,1-.61,9.34c-1.43,2.32-3.72,3.24-6.32,3.63a15.54,15.54,0,0,1-.44,13.28,8.82,8.82,0,0,1-5,4.69c-3.22,1.2-6.34,2.62-9.46,4.05a17.13,17.13,0,0,1-11.29,1.22,9.88,9.88,0,0,0-1-.11,32.69,32.69,0,0,0,3.44,7.39c1.73,2.87,1.77,4.61.11,6.53a6.3,6.3,0,0,1-7.34,1.75c-2.7-1-4.32-3.17-5.58-5.6-1.15-2.23-2.18-4.52-3.23-6.8a2.31,2.31,0,0,0-2.77-1.47c-4.33.59-8.16-.49-11.13-3.86a1.8,1.8,0,0,0-1.8-.55c-9.5,1.15-16.73-2.93-22.76-9.83-.37-.43-.52-1.3-1.53-.75-4.42,2.4-8.45,1.08-12.14-1.65a2.48,2.48,0,0,0-2.9-.31c-7,2.94-14.19,4.67-21.85,3.5a25.11,25.11,0,0,1-16.67-9.47c-.38-.49-.83-.92-1.17-1.42a2.9,2.9,0,0,0-3.34-1.44,8.1,8.1,0,0,1-6.31-1.43c-4.67-3.35-9-7-10.67-12.88A9.73,9.73,0,0,1,.51,118c.6-.62.36-1.4.32-2.09a17.69,17.69,0,0,1,1.61-8.48,5.13,5.13,0,0,0,.2-1l0-.14a3.38,3.38,0,0,0,1.47-2.28c1.39-1.29,1-2.36-.06-3.78A19.53,19.53,0,0,1,.21,90a11.62,11.62,0,0,0,0-5.5c1.31-8.44,6-14.43,13.47-18.3a3.09,3.09,0,0,0,2-2.93c.76-9.18,5.84-15.63,13.39-20.36a25.7,25.7,0,0,1,11.88-4,15.14,15.14,0,0,0,6.63,0l2.22.37c1.34,1.41,1.76.27,2.2-.79l0,0a11.1,11.1,0,0,0,3.58-3.06l0,0,.46-.32h0c.34,0,.64,0,.71-.46l0,0c.67.15,1.17-.28,1.71-.54,5.12-2.51,10.14-2.18,15.09.49a9.18,9.18,0,0,0,1.36.49c1.63,1.63,2.87,1.36,4.44-.36a10.77,10.77,0,0,1,7-3.17A16.68,16.68,0,0,0,92.48,31.62Zm-4.31,70.22-.42.32a11.66,11.66,0,0,0-5,5.58c-.28.55-.57,1.22-1.35.86s-.58-1-.26-1.57c.82-1.53.12-1.51-1.2-1.41A14.31,14.31,0,0,0,69.81,111c-2.67,3.12-4.77,6.54-4.93,10.81,0,1-.39,2.15.22,2.87s1.5-.43,2.33-.42l.18,0c.52,0,1,0,1.17.61s-.24.8-.64,1-.7.23-1,.38a8.92,8.92,0,0,0-5,11.26c1.28,4.05,6.57,7,10.79,6,2.45-.57,2.61-.9,1.56-3.18a13,13,0,0,1,3.82-16.15c5.52-4.39,11.92-6.38,18.83-6.91a6.19,6.19,0,0,0,4.44-1.78,11.93,11.93,0,0,1,4.32-2.72c7.52-3,15.27-4.4,23.36-3.16,1.82.27,3.19-.8,3.05-2.58-.34-4.23,2.7-6.32,5.28-8.72a.9.9,0,0,1,1.33.06c.46.5.11.93-.23,1.28-1,1-2.11,2.06-3.17,3.07a4.09,4.09,0,0,0-1.32,3.64c.9,0,1.33-.66,1.88-1.12a45.61,45.61,0,0,1,7.26-4.64c.56-.31,1.37-.68,1.76.16s-.3,1.12-1,1.45a47.88,47.88,0,0,0-10.78,7.58c-.27.24-.86.5-.27,1s1.29.58.74,1.35-1.22.33-1.86.12A28,28,0,0,0,124,110.9a45,45,0,0,0-15.14,2.56,17.9,17.9,0,0,0-10.35,8.31c-.32.54-.61,1.19-1.38.8s-.5-1-.19-1.58l1-1.8a3.39,3.39,0,0,0-.63-.15,29.81,29.81,0,0,0-17.83,6.47c-4.2,3.29-5.58,8-4,12.44,3.45,9.75,15.22,18,27.55,14.51a13.62,13.62,0,0,0,5.85-3.06c-.63-.23-1-.36-1.31-.47a12.29,12.29,0,0,1-1.21-.41c-.53-.24-1-.58-.68-1.27s.73-.54,1.25-.36c5.65,2,10.11-.36,14.26-3.88,1.17-1,2.33-2,3.53-2.93,4.58-3.56,10.09-4.18,15.58-4.77,4.17-.46,8.66,0,10.91-4.8a.67.67,0,0,1,1-.29.69.69,0,0,1,.42.91c-.74,2,.73,1.62,1.72,1.51a11.06,11.06,0,0,0,3.4-.64c3.53-1.55,5-5.87,3.43-9.87-2.59-6.51-10.54-7.63-16.12-3.6.64.4,1.82.55,1.47,1.51s-1.34.48-2.1.28a21.84,21.84,0,0,0-9.81-.51,14,14,0,0,0-9.46,5.78c-.54.78-1.42,1.78.39,2.26a.65.65,0,0,1,.48.86.86.86,0,0,1-1,.65,10.47,10.47,0,0,1-1.07-.27c-8.4-1.84-17.6.74-20.94,9.77-.22.6-.5,1-1.18.8s-.67-.63-.48-1.18c.26-.77.17-1.34-.84-1.34a21.55,21.55,0,0,0-5.13.25c-.84.21-1.25.55-1.32,1.44a5.12,5.12,0,0,1-1.56,3,.79.79,0,0,1-1.33-.85,11.46,11.46,0,0,1,.72-1.27A4.37,4.37,0,0,0,90.33,134c-.58-.36-1.67-.55-1.19-1.49s1.38-.34,2.08,0c.33.16.8.32.91.59,1.26,3.19,3.88,2.45,6.34,2.3a8.53,8.53,0,0,1,2.37.16,1.88,1.88,0,0,0,2.29-.93,17,17,0,0,1,9.8-7,23.75,23.75,0,0,1,7.82-.7,2.17,2.17,0,0,0,2.33-1.3,13.24,13.24,0,0,1,6.34-5.91,20.15,20.15,0,0,1,11.27-1.74,2.62,2.62,0,0,0,2.12-.29,16.9,16.9,0,0,1,9.41-3.22c.64,0,1.11-.18,1-.94-.23-2.48,1.68-3.81,2.94-5.48.38-.5,1-1,1.55-.48s.12,1.21-.31,1.73a25,25,0,0,0-1.94,2.44c-1,1.6-.54,2.9,1.19,3.64a10.65,10.65,0,0,1,3.1,1.94,2.46,2.46,0,0,0,2.85.44c4.53-1.65,7.62-7.25,6.78-12.43-.71-4.35-5.13-8.11-9.78-8.29-1.1,0-2.2,0-3.31.05-.4,0-.73-.14-.81-.58a.74.74,0,0,1,.47-.89,5.28,5.28,0,0,1,1.41-.34,12.33,12.33,0,0,1,10.38,3.65c.92.94,1.55.93,2.39,0s1.65-1.83,1.58-3.19l.3-1.19a7.54,7.54,0,0,0-6.76-10c-.92,0-1.85.06-2.76,0-.75-.06-2.05.76-2.12-.54s1.34-1.09,2.27-1.23a5,5,0,0,1,.55,0c3.59,0,3.89-.4,3.26-4,0-.18-.1-.35-.14-.53-1.43-6.18-5.56-10.23-10.77-13.32A17.59,17.59,0,0,0,145.82,62c-.88,0-1.57.14-1.7,1.2a16.6,16.6,0,0,1-4.63,9.4c-.56.6-.4.87.26,1.17A15.24,15.24,0,0,1,143.51,76c.51.43.85,1.28,1.82.81s.6-1.24.6-1.93c0-3.69,1.69-5.46,5.33-5.51.54,0,1,.06,1.17.63s-.33.91-.81,1-1.21.15-1.8.28c-1.54.34-2.2,1.63-2.13,3.59.07,1.64,1.19,1.41,2.21,1.44a9.08,9.08,0,0,1,3.83,1.19c.62.3,1.62.53,1.19,1.5s-1.32.3-1.9.06c-2.23-.94-4.46-1.53-7-.73a20,20,0,0,1,2.07,4.37,8.37,8.37,0,0,1-1.89,8.2c-.4.43-.87.75-1.43.25s-.2-.89.07-1.3.47-.57.68-.87c2.15-3.06,1-8.4-2.14-10.16l-.4-.38c-.38-1.41-1.67-1.87-2.74-2.5-1.7-1-3.38-1.52-5.19,0a10.4,10.4,0,0,1-4.32,2c-1.56.38-1.42,1-.59,2.08A15.4,15.4,0,0,1,133,92.9c-.15.72-.14,1.67-1.22,1.4-.87-.22-.64-1.06-.51-1.72a14.4,14.4,0,0,0-2.68-11.79c-3.37-4.6-9-5.83-13.64-3a11.63,11.63,0,0,0-4.37,5.07c-.25.52-.57,1-1.25.76s-.53-.87-.31-1.4c2.54-6.15,10-10,16.35-6.37,2,1.18,3.63.83,5.47.26a17.87,17.87,0,0,0,1.85-.81A16.43,16.43,0,0,0,140.37,52c-5.9-10.38-21.94-17.74-33.64-10.9-1.11.65-1.69.31-2.19-.92-.61-1.5-1.44-3-3.17-3.56h0c-.2-.22-.35-.53-.6-.65a26.79,26.79,0,0,0-9.59-3c-4.6-.44-8.73.7-12,4.2-1,1.11-.1,1.75.22,2.58a1.17,1.17,0,0,0,1.72.77,5.49,5.49,0,0,1,4,0c3.7,1.56,5.76,7,4.15,10.66-.25.57-.56,1-1.22.78a.86.86,0,0,1-.45-1.23,8.67,8.67,0,0,0,.25-3.47A6,6,0,0,0,83.67,42a2.71,2.71,0,0,0-2.57.61c-.65.52,0,1.14.12,1.68A20.65,20.65,0,0,1,80.87,56a23,23,0,0,1-2.3,5.2c-.27.43-.55.88-1.15.56A.91.91,0,0,1,77,60.37c.23-.43.45-.87.67-1.3A20.38,20.38,0,0,0,80,47.89c-.7-9-7.13-14.54-15.55-14.19-4.81.2-8.5,2.9-11.66,6.3-4.4,4.74-6.77,13.89-1.78,19.91.4.49,1,1.15.28,1.76s-1.16-.26-1.61-.69a4.52,4.52,0,0,1-.57-.72C45.54,55,45.94,49.57,48.19,44c.41-1,1.84-2.15,1.12-3s-2.28-.51-3.48-.71c-.12,0-.25,0-.37,0-8.62-.3-15.8,3-21.71,9A21,21,0,0,0,17.4,63.23c0,.67-.13,1.59.93,1.28.75-.22,2.27.32,2-1.41-.37-2.18.85-3.48,2.52-4.44,2.59-1.48,8.2-.86,10.5,1.07.33.29.7.59.46,1.08s-.88.61-1.42.35a16.61,16.61,0,0,0-4.31-1.56,5.57,5.57,0,0,0-5,1,2.16,2.16,0,0,0-1,2.38c.36,1.27,1.33.86,2.09.87a12.86,12.86,0,0,1,8.39,3.23c.5.44,1.14,1,.47,1.69s-1.13.08-1.59-.35a9,9,0,0,0-2.57-1.74c-4.34-1.87-8.7-1.19-12.89.29-5.5,2-9.24,6-12.08,11-4.39,7.76-1.92,19.52,5.06,25,6.52,5.14,16.39,3.52,22-.59a14.55,14.55,0,0,0,3.24-3.22c.31-.43.75-1,1.36-.4s.35,1,0,1.48-.64.74-1,1.11c-3.69,4.22-8.56,6-13.94,6.56-1.12.12-1.56.43-1.36,1.56.35,2,4.18,5.48,6.21,5.39,2.54-.11,5.15,0,7.49-1.39.64-.36,1.47-.82,1.89.13s-.53,1.1-1.08,1.43c-2.08,1.27-4.41,1.29-6.75,1.44-4.39.29-9-3.18-9.57-7.46-.1-.77-.36-1-1.09-1.13a16.29,16.29,0,0,1-8.64-3.77c-.8-.7-1.32-.55-1.94.24A17.74,17.74,0,0,0,1.93,114c-.51,6,2.67,10.19,6.9,13.87,2.6,2.25,5.23,4.26,9,3.8a15.12,15.12,0,0,0,6.31-2.39,35.17,35.17,0,0,1,14.8-5.6,1.76,1.76,0,0,0,1.7-1.55,4.06,4.06,0,0,1,5.09-3.3,27.07,27.07,0,0,1,3.35,1c.68.21,1.61.46,1.21,1.42s-1.15.38-1.78.17a10.55,10.55,0,0,0-4.11-.83,2.28,2.28,0,0,0-2.17,2.15c-.17,1.34,1.13,1,1.85,1.14a15.65,15.65,0,0,1,5.46,2.06c.57.39,1.58.69,1,1.59s-1.24.24-1.89-.12a16.16,16.16,0,0,0-10.83-1.8c-1.37.24-1.26.78-.88,1.69a15,15,0,0,0,4.44,6c.54.43,1,.86.52,1.51s-1.08.16-1.55-.17a14.79,14.79,0,0,1-5.06-6.85c-.51-1.23-1-1.41-2.17-1a52.45,52.45,0,0,0-9,4.54c-2.57,1.48-2.6,1.43-.81,3.7,5.44,6.92,12.84,9.61,21.34,9.38a42.52,42.52,0,0,0,14.94-3.51c1.34-.55,1.6-1,1.05-2.38a9.79,9.79,0,0,1,1.16-10.08A5.23,5.23,0,0,0,63.15,124c-.48-2.75.34-5.44,1.33-8.15a13.27,13.27,0,0,1-4.57-1.09A16.79,16.79,0,0,1,52.12,107a1.59,1.59,0,0,0-2.34-.88,12,12,0,0,0-5.29,3.82c-.46.56-.88,1.52-1.69.91s-.11-1.48.35-2a12.91,12.91,0,0,1,6.22-4.39c1.08-.34,1.28-.8.93-1.88-.54-1.68-.88-3.43-1.26-5.16C48.3,94,46,92.37,42.56,93c-.68.13-1.58.73-1.84-.35s.82-1.25,1.55-1.42a6.93,6.93,0,0,1,8.26,5c.41,1.6.66,3.24,1.12,4.82,1.36,4.62,3.37,8.83,7.71,11.45,3.87,2.32,5.51,2,8.24-1.57,3.71-4.8,8.47-7.51,14.71-7,.71,0,1-.38,1.36-.76a23,23,0,0,1,8-5.43c2.23-.86,3.71-1.81,3.07-4.52-.17-.73,0-1.79,1.15-1.67,1,.1.58,1,.6,1.63a6.09,6.09,0,0,1,0,.74c-.09,1.38.32,1.85,1.82,1.41a20.26,20.26,0,0,1,10.87,0,2.32,2.32,0,0,0,2.57-.79,39.74,39.74,0,0,0,4.16-5.59c.44-.66.8-1.91,1.83-1.24s0,1.53-.41,2.17a28.41,28.41,0,0,1-3.89,5.34c-.83.88-.69,1.33.44,1.8a28.64,28.64,0,0,1,5.7,3.34c.55.39,1.28.8.75,1.59-.64,1-1.25.13-1.84-.21-.16-.1-.28-.24-.43-.35-5.25-3.62-10.91-5.91-17.41-4.74-3.78.68-7.5,1.72-10.67,4.08l-1.45.83A.27.27,0,0,0,88.17,101.84Zm67,38a8,8,0,0,0-.52-3.38c-.81-2.42-2.74-3.1-4.87-1.67a10,10,0,0,1-4.57,1.79c-2.26.22-4.48.66-6.73.82a26.72,26.72,0,0,0-13.81,5c-1.75,1.23-3.3,2.74-5,4-2.53,1.81-2.59,2.07-.14,4.13.65.55,1.4,1,2.06,1.54a1.1,1.1,0,0,0,1.72-.07,17.71,17.71,0,0,1,7.35-4,33.12,33.12,0,0,1,8-1.26c3.82,0,6.75-1.43,8.57-4.9a21.54,21.54,0,0,1,1.43-2.14c.37-.56.87-1,1.51-.53s.24,1-.09,1.46c-1.08,1.56-2.08,3.18-3.26,4.66a8,8,0,0,1-5.57,2.88c-2.43.28-4.88.43-7.29.81a18.68,18.68,0,0,0-8.86,3.79c-.62.49-1,.92.05,1.41,4.55,2.12,9.17,3,14,1a90.16,90.16,0,0,1,8.61-3.68C153,149.76,155,145.56,155.12,139.89Zm-51.73,14.35c3.23,4.3,10.39,4.65,14.58.77,1.43-1.32,1.85-1.25,2.57.53,1.72,4.26,3.45,8.52,6.18,12.28.35.47.66,1,.08,1.44-.75.6-1.07-.08-1.43-.56s-.74-1-1.09-1.48c-2-3-3.27-6.3-4.73-9.53-.19-.41-.35-1.38-1.06-.7s-2.4.61-1.71,2c1.47,3,2.64,6.22,4.5,9,1.51,2.31,3.5,4,6.51,3.7a3.62,3.62,0,0,0,2.93-5.54,36.11,36.11,0,0,1-4.07-8.61,2.33,2.33,0,0,0-1.45-1.49c-3-1.39-6.09-2.83-7.87-5.55-1.63-2.5-3.42-1.78-5.28-1.18-1.1.36-2,1.4-3,2.07s-.68,1,.15,1.36a4.56,4.56,0,0,0,4.84-.61c.49-.35,1-.59,1.45,0s0,1-.51,1.33a5.81,5.81,0,0,1-6.72.61A4.26,4.26,0,0,0,103.39,154.24Z"/></g></g></svg>