<svg xmlns="http://www.w3.org/2000/svg" xmlns:xlink="http://www.w3.org/1999/xlink" viewBox="0 0 212 170.34"><defs><style>.cls-1{fill:#fff;}.cls-2{mask:url(#mask);}.cls-3{fill:#8a3425;}.cls-4{fill:#964b38;}.cls-5{fill:#944633;}.cls-6{fill:#fdfeff;}.cls-7{fill:#f36f59;}.cls-8{fill:#aebadf;}.cls-9{fill:#a3dada;}.cls-10{fill:#f0dedb;}.cls-11{fill:#f37159;}.cls-12{fill:#ecf3f2;}.cls-13{fill:#e69788;}.cls-14{fill:#e6a396;}.cls-15{fill:#a4dad8;}.cls-16{fill:#f3725a;}.cls-17{mask:url(#mask-2);}</style><mask id="mask" x="35.43" y="37.02" width="177.35" height="117" maskUnits="userSpaceOnUse"><path class="cls-1" d="M157,90.47c4.51-3.45,8.53-6,13.6-4.85,2.71.6,3.83-1.05,4.71-2.86,3.11-6.43,5.9-13,9.13-19.38,2.32-4.58,5.16-8.38,1.81-14.21-2.45-4.24,1.94-10.5,6.82-11.81,5-1.37,10.95,1.54,12.5,6.15,1.68,5-1.33,12.29-6.58,12.47-8.92.31-9.74,7-12.4,12.59-3.07,6.43-6,12.9-9.1,19.45,7.18,7.74,7.39,13.54.44,21.55,6.15,5.32,11.08,11.77,16.19,18,2.08,2.56,4,3.46,7.14,2.78,5.25-1.15,8.44,2.3,10.42,6.09s1.18,8.06-2.42,11.3c-2.87,2.59-6.19,4.4-9.7,2.4-3.7-2.11-7.78-5.09-6.76-10.07,1.14-5.59-1.44-9.09-4.86-12.61-2.23-2.29-4.9-4.38-6.41-7.09-3.4-6.12-8-9-15.13-8.2-5.65.6-8.49-4.12-11.83-7.63-12.79,3.88-25.54,7.78-38.31,11.58-3.13.93-5.59,2.23-7.49,5.26-3.26,5.19-9.16,6.42-15.43,3.25a6.54,6.54,0,0,0-6.77,0c-8.2,4.15-16.32,8.54-24.82,12-4.72,1.93-4.75,6-6.12,9.41-1.88,4.67-4.5,7.24-9.74,6-4.74-1.16-8.62-3.37-8.75-8.89a10.74,10.74,0,0,1,8.38-10.64c4-.75,7.91-1.06,10.66,2.61,9.71-4.77,19.12-9.5,28.64-14,2.06-1,3.27-1.62,3.33-4.35.15-6,3.17-10.39,9.14-12.1,2.69-.76,3.92-2.41,5-4.82,5.31-12.26,10.63-24.53,16.32-36.62,1.55-3.3,1.88-5.61-.6-8.53-3.06-3.59-.11-6.91,1.65-9.76,2.22-3.57,6.37-3.22,9.8-2.6,3,.54,6.26,2.79,5.38,6.16-2.14,8.19,2.72,13.42,6.76,19.22C146.74,75.05,151.7,82.58,157,90.47ZM130.74,59.61c-5.72-.44-7.93,3.15-9.88,7.85-5.19,12.47-10.8,24.76-16.3,37.25,3.38,1.74,4.25,5.77,7,8.87L154,100.52c-.25-2.84,1.53-5.48-.43-8.24C146,81.57,138.54,70.78,130.74,59.61Zm43.84,45.27c-9,1.43-11.48-.11-15.41-9.26-2,4.78-.56,8.38,3.4,10.76S170.5,109.84,174.58,104.88Z"/></mask><mask id="mask-2" x="-1.35" y="-0.82" width="151.33" height="171.16" maskUnits="userSpaceOnUse"><path class="cls-1" d="M60.44,66c-4.47-3.5-7.91-6.77-8.11-11.95-.1-2.77-2-3.45-3.95-3.84-7-1.4-14.07-2.45-21-4-5-1.1-9.42-2.9-14.22,1.82C9.63,51.5,2.47,48.82,0,44.43c-2.58-4.55-1.25-11,2.82-13.65C7.21,27.9,15,29,16.52,34c2.54,8.56,9.24,7.67,15.29,8.84,7,1.36,14,2.62,21.11,3.94,5.7-8.9,11.26-10.56,20.76-5.84,3.6-7.28,8.61-13.67,13.39-20.19,2-2.66,2.34-4.78.9-7.61-2.43-4.79.11-8.74,3.28-11.61s7.51-3.17,11.55-.5c3.22,2.14,5.81,4.9,4.75,8.79-1.11,4.11-3,8.81-8,9.07-5.7.3-8.44,3.68-11,7.87-1.65,2.73-3,5.84-5.26,8-5.06,4.83-6.67,10-4.14,16.71,2,5.31-1.85,9.25-4.41,13.37Q85.14,81.94,95.52,99c1.69,2.8,3.56,4.85,7,5.93,5.85,1.85,8.53,7.26,7,14.13a6.57,6.57,0,0,0,1.65,6.56c6.08,6.9,12.37,13.66,17.85,21,3.05,4.1,7,3.1,10.64,3.57,5,.64,8.14,2.54,8.21,7.94.07,4.87-1.1,9.19-6.4,10.69A10.75,10.75,0,0,1,129,163.41c-1.73-3.68-3-7.4-.14-11-7.06-8.21-14-16.13-20.75-24.22-1.45-1.74-2.38-2.75-5-2.13-5.83,1.36-10.85-.46-14-5.81-1.42-2.41-3.32-3.19-5.91-3.6-13.21-2.07-26.42-4.14-39.55-6.61-3.59-.68-5.9-.42-8.11,2.72-2.71,3.86-6.66,1.84-9.86.84-4-1.24-4.72-5.35-5-8.83-.23-3,1.12-6.76,4.61-6.75,8.46,0,12.31-6,16.91-11.37C48.09,79.83,54.13,73.15,60.44,66ZM37.16,99.2c1,5.65,5,6.88,10.08,7.59,13.36,1.9,26.67,4.25,40.14,6.44.84-3.71,4.52-5.56,6.83-9L70.92,66.4c-2.69.95-5.69-.11-7.87,2.48C54.59,78.91,46,88.85,37.16,99.2ZM70,45.41c3.65,8.39,2.78,11.13-5.1,17.23,5.12.7,8.26-1.56,9.56-6C75.7,52.38,75.81,48.11,70,45.41Z"/></mask></defs><g id="Layer_2" data-name="Layer 2"><g id="Layer_1-2" data-name="Layer 1"><g class="cls-2"><path class="cls-3" d="M114.53,68.31c3.3-3.91,5.06-7.54,1.6-12.79-2.95-4.46.91-8.22,3.64-11.68,2.06-1.39,4.38-1.19,6.68-1,6.31,2.5,8,5,7.06,11.21a10.94,10.94,0,0,0,2,8.31c5.63,8,11.53,15.69,16.22,24.28,1.62,2.95,3.84,6.19,7.81,2.11.85-.87,2.28-1.17,3.45-1.73l4.51-.49c3.82-.48,4.72-3.66,6.17-6.46,4.39-8.49,7.45-17.68,13.41-25.35,2.59.44,5.47.08,7.33,2.59a3.31,3.31,0,0,1-1.42,1.9c-3.75,3.45-4.71,8.46-7,12.71-1.53,2.8-2.22,6-3.83,8.77-2.62,4.5-4.92,8.91-.94,13.84a2.24,2.24,0,0,1,0,2.18l.78,6.77c-1.82,1.8-1.78,4.83-4.31,6.23-1.54.85-.46,1.74.31,2.61,5.24,5.84,10.59,11.59,15.57,17.65,1.56,1.89,3.1,1.85,4.92,1.51a9.37,9.37,0,0,1,9.43,3.53,4.3,4.3,0,0,1-2.33,2.92c-8.06-1-9.33.37-7.46,7.91a5.53,5.53,0,0,1-2.36,3.94c-3.38-2.24-6-4.93-4.43-9.41,1.62-4.67-1.26-7.79-4.14-10.22-3.2-2.7-5.35-6.09-7.84-9.25-3.29-4.18-6.42-8-12.69-7.1-5,.77-9.22-1.83-12.18-5.47-1.73-2.13-3.09-2.32-5.14-1.55a330.86,330.86,0,0,1-33.71,10.59c-3.16.82-5.93,2-7.57,5-2.9,5.21-10.29,7.15-15.93,3.94-3.12-1.77-5.72-1.31-8.48.32-8,4.7-16.47,8.35-24.84,12.27-1.49-1.28.09-3-.55-4.35,8.24-4.16,16.41-8.46,24.76-12.38,2.32-1.09,3.46-1.84,3.43-4.75,0-5.64,3.76-10,9.43-11.8,1.86-.58,3.3-1.25,4.07-3.32,3.72-10,9.28-19.13,12.5-29.29C113.32,71.48,113,69.51,114.53,68.31Z"/><path class="cls-4" d="M186.94,55.06c-5-5.17-3.19-12.5,4.14-16.6l3.38-.39a10.81,10.81,0,0,1,10.76,9.27c1,5.19-3.14,8.18-7.63,10.13-1.1.62-2.22,1-3.38.14C192,56.1,188.8,57.5,186.94,55.06Z"/><path class="cls-4" d="M52,151.14c-3,4.05-7.2,3.06-10.64,1.67s-6.57-4.37-5.87-9,2.7-8.41,7.5-9.93a20.69,20.69,0,0,1,3.89-.44c3.29.28,6.79.38,4.83,5.37-1.62.75-3.32-.28-5,.19-1.86.55-3.8,1.27-3.43,3.64.3,1.9,1.92,2.61,3.81,2.48a13.75,13.75,0,0,1,3.33-.27C54,146.24,52.39,148.84,52,151.14Z"/><path class="cls-4" d="M205.82,137.83c0-1.51.5-2.58,2.12-2.84s.95,2.1,2.36,2.09c1.43,1.67,1.09,3.62.9,5.55.59,4.77-3.43,6.34-6.14,8.82a8.33,8.33,0,0,1-5.6.6l-3.67-2.29a3.45,3.45,0,0,1,1.7-3.38C202.87,146.07,206.06,143.62,205.82,137.83Z"/><path class="cls-5" d="M52,151.14c-1.24-1.67,1-4.56-2-5.64a5.86,5.86,0,0,1,.92-6.79c2-4.35-2-4-4.08-5.24,2-1.61,4.17-.45,5.21.88,2.25,2.86,4.07,2,6.16.16,4.84.86-.77,3.05.55,4.35-3.6,1.07-1.87,5-3.87,7.11C53.64,147.35,53,149.4,52,151.14Z"/><path class="cls-6" d="M126.45,42.82l-6.68,1C121.71,41.61,124,41.75,126.45,42.82Z"/><path class="cls-6" d="M199.46,152.05l5.6-.6C203.28,152.53,201.63,154.71,199.46,152.05Z"/><path class="cls-6" d="M114.53,68.31c-.43,1.66-.69,3.4-2,4.66C112.22,71,112.28,69.17,114.53,68.31Z"/><path class="cls-6" d="M211.2,142.63l-.9-5.55C212.46,138.63,212.32,140.55,211.2,142.63Z"/><path class="cls-7" d="M158.18,95.09c3-4.71,7.45-5.86,12.57-4.43,4.95,1.38,6.46,5.14,6.14,9.91a15.77,15.77,0,0,1-3.68,4.94c-3.84,2.64-7.8,2.77-11.5,0C158.29,102.93,156.8,99.42,158.18,95.09Z"/><path class="cls-8" d="M205.82,137.83c2.35,2.34,1.61,4.65-.13,6.88-2.24,2.85-5,3.33-8.2,1.67-2.27-3.16-3.18-6.51-.11-9.55S203.18,136,205.82,137.83Z"/><path class="cls-9" d="M91.67,117c-.18-4.73,3.55-5.58,6.84-6.68a3.83,3.83,0,0,1,4.75,1.83c1.55,2.6,1.83,5.18-.5,7.55C96.15,122.1,94.89,121.79,91.67,117Z"/><path class="cls-10" d="M158.18,95.09c1.62,10.35,7,13.51,15.78,9.18a.7.7,0,0,1,.18,1.18c-5,4.55-9.49,5.14-13.95,1.54C156.09,103.69,155.14,99.68,158.18,95.09Z"/><path class="cls-11" d="M122.16,55.78c-2.67-2.85-1.32-5.44.7-7.8a3.21,3.21,0,0,1,4.92-.39c3.09,2.59,1.16,5.22,0,7.83C125.94,56.36,124.11,57,122.16,55.78Z"/><path class="cls-12" d="M91.67,117c3.07,3.49,7,3.5,11.09,2.7-2.41,3.13-5.49,3.46-8.79,1.79C92.3,120.66,89.92,119.79,91.67,117Z"/><path class="cls-6" d="M194.21,57.61l3.38-.14c-1.76,1.23-3.48,2.8-5.62.61Z"/><path class="cls-13" d="M174.14,105.45l-.18-1.18a7,7,0,0,1,2.93-3.7A5.07,5.07,0,0,1,174.14,105.45Z"/><path class="cls-14" d="M122.16,55.78l5.59-.36C126,57.14,124.2,58.43,122.16,55.78Z"/><path class="cls-15" d="M189.52,48.84c-.33-4.62,1.32-6.71,4.64-6.84,3-.11,5.56,1,5.92,4.57.34,3.36-1.67,5.82-4.48,6.16C192.55,53.1,190.63,50.38,189.52,48.84Z"/><path class="cls-16" d="M51,138.71a13.69,13.69,0,0,1-.91,6.79c-2.79,2.11-5.24,2.18-7.82-.59-1.71-1.84-1.47-3.43-.06-4.87C44.72,137.47,47.61,136,51,138.71Z"/></g><g class="cls-17"><path class="cls-3" d="M49.64,112.71c-4.61-2.21-8.56-3-12.77,1.66-3.58,4-8.19,1.17-12.23-.59-1.86-1.66-2.24-4-2.66-6.22.83-6.73,2.82-9,9.08-9.65a10.89,10.89,0,0,0,7.54-4C44.88,86.42,50.89,78.77,58,72.07c2.45-2.3,5-5.26.08-8.08-1-.61-1.7-1.92-2.54-2.91C55,59.66,54.5,58.25,54,56.83c-1.42-3.57-4.72-3.64-7.8-4.34-9.31-2.12-19-2.78-27.89-6.63-.23-2.62-1.3-5.31.66-7.74a3.33,3.33,0,0,1,2.2.89c4.28,2.77,9.37,2.45,14.06,3.62,3.1.77,6.38.63,9.45,1.49,5,1.41,9.86,2.53,13.64-2.56a2.26,2.26,0,0,1,2.1-.55l6.36-2.45c2.2,1.3,5.13.51,7.12,2.61,1.21,1.27,1.79,0,2.44-1,4.34-6.54,8.57-13.15,13.18-19.5,1.44-2,1-3.46.23-5.14a9.36,9.36,0,0,1,1.05-10,4.29,4.29,0,0,1,3.41,1.52c1.08,8,2.7,8.93,9.53,5.23a5.53,5.53,0,0,1,4.41,1.31c-1.33,3.83-3.27,7-8,6.64-4.93-.4-7.22,3.18-8.85,6.57-1.82,3.78-4.56,6.71-7,9.92C81.05,41,78.08,45,80.58,50.81c2,4.68.54,9.39-2.24,13.17-1.63,2.2-1.48,3.56-.21,5.35a331.27,331.27,0,0,1,18.7,30c1.59,2.86,3.46,5.23,6.73,6.08,5.77,1.5,9.5,8.17,7.81,14.44-.93,3.46.16,5.86,2.43,8.12,6.55,6.55,12.22,13.85,18.11,21-.87,1.78-2.89.66-4.07,1.63-6.09-6.93-12.31-13.76-18.2-20.86-1.63-2-2.65-2.89-5.46-2.13-5.44,1.46-10.65-1.12-13.79-6.17-1-1.65-2-2.88-4.24-3.11-10.56-1.09-20.83-4.18-31.48-4.74C53,113.09,51.18,113.85,49.64,112.71Z"/><path class="cls-4" d="M18.65,45.94c-3.74,6.16-11.3,6.22-17.1.15L.32,42.92A10.83,10.83,0,0,1,6.59,30.17c4.78-2.26,8.71,1,11.73,4.85a2.92,2.92,0,0,1,1,3.24C18.38,40.76,20.55,43.52,18.65,45.94Z"/><path class="cls-4" d="M145.51,152.42c4.66,1.87,4.76,6.21,4.28,9.88s-2.59,7.46-7.21,7.94-8.82-.5-11.49-4.78a19.28,19.28,0,0,1-1.4-3.65c-.56-3.26-1.35-6.67,4-6,1.14,1.38.56,3.28,1.43,4.74,1,1.66,2.17,3.37,4.38,2.41,1.76-.77,2-2.52,1.45-4.31a14,14,0,0,1-1.11-3.15C140.28,151.78,143.19,152.66,145.51,152.42Z"/><path class="cls-4" d="M94,6.89c-1.45.43-2.62.17-3.28-1.33s1.79-1.45,1.44-2.81C93.45,1,95.42.78,97.33.48c4.48-1.76,7,1.73,10.09,3.74a8.33,8.33,0,0,1,2,5.27l-1.29,4.13a3.46,3.46,0,0,1-3.7-.8C102.76,7.68,99.58,5.21,94,6.89Z"/><path class="cls-5" d="M145.51,152.42c-1.31,1.62-4.67.17-5,3.31a5.87,5.87,0,0,1-6.81.81c-4.71-.83-3.39,3-4,5.27-2.08-1.58-1.49-3.92-.47-5.27,2.21-2.89,1-4.44-1.38-6-.38-4.9,3.14,0,4.07-1.63,1.94,3.23,5.35.55,7.86,2C141.44,151.82,143.58,151.93,145.51,152.42Z"/><path class="cls-6" d="M22,107.56c.89,2.07,1.77,4.14,2.66,6.22C22,112.46,21.55,110.2,22,107.56Z"/><path class="cls-6" d="M109.4,9.49l-2-5.27C108.91,5.66,111.43,6.72,109.4,9.49Z"/><path class="cls-6" d="M49.64,112.71c1.72,0,3.47-.19,5,.82C52.83,114.27,51,114.67,49.64,112.71Z"/><path class="cls-6" d="M97.33.48,92.2,2.75C93.15.27,95-.08,97.33.48Z"/><path class="cls-7" d="M64.62,63.74C59.3,62,57.08,58,57.18,52.68c.09-5.14,3.35-7.54,8.05-8.43a15.9,15.9,0,0,1,5.71,2.32c3.51,3.06,4.63,6.86,2.87,11.14C72.18,61.66,69.16,64,64.62,63.74Z"/><path class="cls-8" d="M94,6.89c1.67-2.85,4.1-2.72,6.69-1.59,3.33,1.45,4.48,4,3.68,7.52-2.5,3-5.51,4.71-9.22,2.5S92.9,9.92,94,6.89Z"/><path class="cls-9" d="M102.53,122.62c-4.53,1.36-6.29-2-8.18-5a3.82,3.82,0,0,1,.58-5c2.13-2.16,4.55-3.08,7.44-1.41C106.32,117,106.34,118.31,102.53,122.62Z"/><path class="cls-10" d="M64.62,63.74c9.61-4.18,11.31-10.22,4.92-17.59a.7.7,0,0,1,1.1-.46c5.67,3.7,7.36,7.89,5,13.12C73.47,63.6,69.83,65.53,64.62,63.74Z"/><path class="cls-11" d="M35.6,108.47c-2.09,3.29-4.93,2.64-7.72,1.28a3.22,3.22,0,0,1-1.62-4.67c1.74-3.64,4.77-2.43,7.59-1.94C35.21,104.66,36.28,106.28,35.6,108.47Z"/><path class="cls-12" d="M102.53,122.62c2.61-3.85,1.64-7.64-.16-11.41,3.63,1.55,4.72,4.44,3.93,8.05C105.9,121.09,105.66,123.62,102.53,122.62Z"/><path class="cls-6" d="M19.3,38.26c-.33-1.08-.66-2.16-1-3.24,1.63,1.4,3.58,2.67,2,5.29Z"/><path class="cls-13" d="M70.64,45.69l-1.1.46a7,7,0,0,1-4.31-1.9A5.06,5.06,0,0,1,70.64,45.69Z"/><path class="cls-14" d="M35.6,108.47q-.87-2.67-1.75-5.33C36,104.42,37.66,105.82,35.6,108.47Z"/><path class="cls-15" d="M12,45c-4.39,1.48-6.83.41-7.79-2.78-.85-2.85-.41-5.64,2.94-6.88,3.16-1.17,6.05.16,7.09,2.8C15.35,41,13.2,43.54,12,45Z"/><path class="cls-16" d="M133.73,156.54a13.75,13.75,0,0,1,6.81-.81c2.74,2.16,3.41,4.52,1.38,7.71-1.35,2.11-2.95,2.28-4.7,1.28C134.11,162.93,132,160.5,133.73,156.54Z"/></g></g></g></svg>