<svg xmlns="http://www.w3.org/2000/svg" viewBox="0 0 202.65 156.3"><defs><style>.cls-1{fill:#c1995c;}.cls-2{fill:#231f20;}.cls-3{fill:#8a3425;}.cls-4{fill:#b57971;}</style></defs><g id="Layer_2" data-name="Layer 2"><g id="Layer_1-2" data-name="Layer 1"><path class="cls-1" d="M109.43,94.22a26.51,26.51,0,0,1-1.12-3.63c-.2-1-.36-2.12-.51-3.17A30.06,30.06,0,0,0,106.07,80a56.29,56.29,0,0,0-5.29-9.5,58.27,58.27,0,0,0-15-15.66,21,21,0,0,0-6.59-2.59,28.64,28.64,0,0,1-3.66-1.14,32.74,32.74,0,0,1-3.2-1.59,24.14,24.14,0,0,0-6.73-2.77l-1.15-.23a49.3,49.3,0,0,0-9.7-1.27,56.68,56.68,0,0,0-10.94,1A28.52,28.52,0,0,0,36.65,49c-1,.51-2,1-3,1.4a55,55,0,0,0-9.54,5.06,33.68,33.68,0,0,0-5.8,5.32c-.65.71-1.31,1.41-2,2.1a30.12,30.12,0,0,1-3,2.43,20.77,20.77,0,0,0-5.15,4.9A53.44,53.44,0,0,0,3.6,79.52L3.41,80a28.23,28.23,0,0,0-1.66,7.33c-.16,1.14-.31,2.22-.52,3.29a55.06,55.06,0,0,0-.84,10.64c0,1.16-.1,2.32-.19,3.55a26.1,26.1,0,0,0,.11,7.27,54.53,54.53,0,0,0,3.3,10.35,36.53,36.53,0,0,0,4.23,7.09c.49.7,1,1.39,1.46,2.1a53.25,53.25,0,0,0,6.87,8.2,53.83,53.83,0,0,0,8.15,6.95,55,55,0,0,0,9.43,5.15c1,.4,1.94.87,3,1.38A29,29,0,0,0,43.84,156a16,16,0,0,0,3.07.28A39.37,39.37,0,0,0,51,156a50.6,50.6,0,0,1,5.94-.23,41.26,41.26,0,0,0,8.55-.48,53.93,53.93,0,0,0,19.76-8.4c.9-.6,1.87-1.16,2.89-1.75a28.86,28.86,0,0,0,6.17-4.34,22.07,22.07,0,0,0,3.87-6A30.53,30.53,0,0,1,100,131.5,57.21,57.21,0,0,0,108.57,112a31.93,31.93,0,0,1,1-3.53,23.12,23.12,0,0,0,1.48-7.17A20.37,20.37,0,0,0,109.43,94.22ZM105.14,107a36.29,36.29,0,0,0-1.13,4.06,52.65,52.65,0,0,1-7.87,17.86A35.6,35.6,0,0,0,94,132.75a18,18,0,0,1-3,4.78,25,25,0,0,1-5.21,3.6c-1,.6-2.12,1.22-3.15,1.92a49.27,49.27,0,0,1-18.08,7.69,36,36,0,0,1-7.57.4,60,60,0,0,0-6.48.25,20.53,20.53,0,0,1-5.79.07,25.15,25.15,0,0,1-6-2.35c-1.05-.51-2.13-1-3.24-1.5a48.93,48.93,0,0,1-8.62-4.72,49.58,49.58,0,0,1-7.45-6.37,49.06,49.06,0,0,1-6.3-7.5c-.49-.74-1-1.47-1.52-2.19a32.86,32.86,0,0,1-3.73-6.19,50.22,50.22,0,0,1-3-9.47,22.65,22.65,0,0,1,0-6c.1-1.27.2-2.58.2-3.92a49.38,49.38,0,0,1,.76-9.74c.24-1.21.4-2.41.56-3.57a24.68,24.68,0,0,1,1.35-6.17l.19-.47a49.53,49.53,0,0,1,4.19-8.55A17.06,17.06,0,0,1,16.16,69a31.7,31.7,0,0,0,3.45-2.86c.73-.73,1.42-1.47,2.11-2.22a29,29,0,0,1,5-4.62,50,50,0,0,1,8.74-4.64c1.11-.46,2.21-1,3.26-1.52a25.24,25.24,0,0,1,6-2.36,52.14,52.14,0,0,1,10-.89,45.51,45.51,0,0,1,8.78,1.18l1.16.24a19.76,19.76,0,0,1,5.43,2.3c1.16.62,2.36,1.26,3.63,1.79A33.45,33.45,0,0,0,78,56.73a17.27,17.27,0,0,1,5.2,2A53.63,53.63,0,0,1,96.91,73.07a51.76,51.76,0,0,1,4.86,8.69,26,26,0,0,1,1.42,6.32c.17,1.14.33,2.28.56,3.41a29.45,29.45,0,0,0,1.31,4.31,16.77,16.77,0,0,1,1.34,5.45A19.32,19.32,0,0,1,105.14,107Z"/><path class="cls-1" d="M61.1,92.36c.46.61,1.13.63,1.58,1.09,5.25-5.38,21.07-18,28-22.36A34.14,34.14,0,0,0,88,68a48.19,48.19,0,0,0-7-6c-2.14-1.43-4.84-1.81-7.35-2.61C71.06,65.7,62.69,86,60.28,92A2.73,2.73,0,0,1,61.1,92.36Z"/><path class="cls-1" d="M45.38,79.27l6.13,12.92L52,92a10.67,10.67,0,0,1,1.91-.79,2,2,0,0,1,.44,0c-1.07-7.92-3.78-29.8-4.49-37a39.19,39.19,0,0,0-4.27.59c-3,.6-5.75,2.38-8.53,3.53-1.07.45-2.11.94-3.14,1.45A12.18,12.18,0,0,1,36,62.89C36.36,64.15,45.38,79.27,45.38,79.27Z"/><path class="cls-1" d="M62,106.89c-.32.32-.46.73-.86,1l5.24,9.33s7.34,13.76,8.12,14.34c.59.45,3.23,6.47,4.43,9.26.56-.35,1.12-.71,1.67-1.08,2.54-1.7,5.52-3,7.66-5.11s3.07-5.36,4.78-7.9c.77-1.16,1.52-2.33,2.2-3.52l-32-17.72A7.38,7.38,0,0,1,62,106.89Z"/><path class="cls-1" d="M66.34,121.83c-.63-.66-3.93-9-5.42-12.32a8.57,8.57,0,0,1-1.61.86,8.73,8.73,0,0,1-1.08.39c.77,6.3,2.4,28.63,3,36.37a22.64,22.64,0,0,0,2.7-.34,45.46,45.46,0,0,0,8.69-2.71,40.85,40.85,0,0,0,4.68-2.34c-1-1.53-4.36-6.71-4.36-7.7C72.91,132.88,67.09,122.6,66.34,121.83Z"/><path class="cls-1" d="M46,116.79a54.83,54.83,0,0,1,3.64-7.42,10.37,10.37,0,0,1-1.52-1.29c-.2-.22-.4-.43-.59-.67-6.26,4.84-23.52,17.23-29.48,21.51a47.93,47.93,0,0,0,4.25,4.78,45.1,45.1,0,0,0,6.87,5.86,49.2,49.2,0,0,0,4.93,2.93c1.21-2.45,2.92-5.76,3.83-6.7C39.44,134.24,44.79,120.28,46,116.79Z"/><path class="cls-1" d="M47.17,104.24a10.2,10.2,0,0,1-.61-1.94,5.67,5.67,0,0,1,0-1.54c-6.07,1.22-21,4.53-22.7,5-1.81.49-12.07,2-15.18,2.39a13.56,13.56,0,0,0,.22,2.2,46.54,46.54,0,0,0,2.8,8.73,39.72,39.72,0,0,0,4.32,7L47.4,104.71A3.39,3.39,0,0,1,47.17,104.24Z"/><path class="cls-1" d="M17.26,104.13c2.72.14,15.32-2.08,20.69-3.37a38.45,38.45,0,0,1,7.29-1c0-.29.06-.58.11-.87.11-.55.14-1.1.28-1.62-6.19-2.48-27.3-12.12-33.67-15-.16.34-.29.7-.43,1-1.17,2.79-1.21,5.94-1.8,9a45.13,45.13,0,0,0-.72,9c0,1.44-.14,2.88-.24,4.3C10.75,105,15.19,104,17.26,104.13Z"/><path class="cls-1" d="M57.4,90.65a4.63,4.63,0,0,1,1.16.47C60,87.29,66.09,71.6,67.28,67.35c.91-3.24,1.9-7.35,2.46-9.71A21.19,21.19,0,0,0,64,55.19a46.93,46.93,0,0,0-9.15-1.29c-.48,0-1,0-1.46,0l3,36.53C56.72,90.51,57.06,90.58,57.4,90.65Z"/><path class="cls-1" d="M48.18,93.67a10.64,10.64,0,0,1,1.45-1.4l.24-.14c-1.36-1.95-5.83-10.26-6.43-11.3S36.17,68.9,36.17,68.9l-4.23-8.14c-1,.56-2,1.14-2.93,1.78-2.55,1.69-4.41,4.11-6.57,6.27S17.28,72.42,15.57,75a29.39,29.39,0,0,0-2.15,3.89C26.66,84.18,38.9,89.45,47.17,94.51,47.49,94.21,47.88,94,48.18,93.67Z"/><path class="cls-1" d="M95.2,95.66c1.37-.22,3.67-.71,5.47-1.11A17.21,17.21,0,0,1,100,92.2c-.61-3-.71-6.16-1.86-9a47.28,47.28,0,0,0-4.48-8c-.18-.25-.35-.5-.5-.74L64.57,96q.23.4.42.84a10.32,10.32,0,0,1,.42,2,3.39,3.39,0,0,0,.11.43c2.3-.33,5.76-.73,8.94-1.12C79.11,97.59,92.68,96,95.2,95.66Z"/><path class="cls-1" d="M74.46,100.76c-.78-.17-5.49-.11-8.56-.06,0,0,0,.1,0,.15a10.42,10.42,0,0,1-.47,2,8.91,8.91,0,0,1-.45,1.44v0c6.63,2.91,24.23,11.44,32.06,15.23l.33-.75a44.83,44.83,0,0,0,2.84-8.59c.59-3,2.14-5.92,2.14-9a12.75,12.75,0,0,0-.81-4.07c-2.61.15-7.36.5-8.88,1.06C90.55,99,75.62,101,74.46,100.76Z"/><path class="cls-1" d="M55.3,109.9a10.8,10.8,0,0,1-2,.06,12.36,12.36,0,0,1-1.88-.77L51,109c-1.06,3.36-2.68,9.84-2.94,10.54-.39,1-6.2,16.81-7.17,19.52a20.59,20.59,0,0,1-3.16,5.1c2.57,1.15,5.08,2.69,7.87,3.23,2.95.59,6.08-.26,9.2-.26,1,0,2,0,3,0l-1.18-37.3Z"/><path class="cls-2" d="M129.44,48.56s-10.57-25-1.28-39.05,23.69-8.35,23.69-8.35l-2.56,2.76S136.45,6.07,135.5,7.63s-7,10.3-5.42,16.65,8,17.56,8,17.56Z"/><path class="cls-2" d="M122.71,38.4C111.32,35,98.9,16.85,103.51,3.93c0,0,13.35.82,19.86,8.88s5.45,27.83,5.45,27.83Z"/><path class="cls-3" d="M118.87,29.67C102,30.92,71.17,46,68.61,77.05S83,144.88,98.06,150.5s24.33-1.09,34.9,1.47,37.78-9,43.86-16.65,32.33-39.06,24.33-67.23S134.12,28.54,118.87,29.67Z"/><path class="cls-4" d="M93.36,106.89c1.84,5.5,12.5,6.11,12.7.34S89,93.64,93.36,106.89Z"/><path class="cls-4" d="M111.45,125c1.35,4.07,9.22,4.52,9.37.26S108.19,115.25,111.45,125Z"/><path class="cls-4" d="M111.62,108c1.35,4.07,9.21,4.51,9.37.25S108.36,98.27,111.62,108Z"/></g></g></svg>